{"glyphs":{"0":{"ha":839,"x_min":68,"x_max":771,"o":"m 609 51 q 568 16 609 51 q 419 -19 528 -19 q 230 51 311 -19 q 108 235 149 121 q 68 488 68 349 q 108 740 68 626 q 230 924 149 854 q 419 994 311 994 q 609 924 528 994 q 731 740 690 854 q 771 488 771 626 q 731 235 771 349 q 609 51 690 121 m 419 128 q 545 230 504 128 q 586 488 586 332 q 545 744 586 642 q 419 847 504 847 q 322 794 361 847 q 268 664 283 742 q 253 488 253 586 q 268 310 253 388 q 322 180 283 232 q 419 128 361 128 z "},"1":{"ha":585,"x_min":35,"x_max":465,"o":"m 465 0 l 289 0 l 289 767 q 35 558 186 633 l 35 710 q 276 972 193 814 l 465 972 l 465 0 z "},"2":{"ha":756,"x_min":69,"x_max":685,"o":"m 674 0 l 69 0 l 69 85 q 93 242 69 174 q 155 351 117 310 q 240 424 193 392 q 332 482 286 456 q 416 537 378 508 q 478 609 454 565 q 501 713 501 653 q 381 856 501 856 q 323 843 347 856 q 285 813 299 831 q 265 765 272 794 q 256 710 258 735 q 254 651 254 686 l 79 651 q 159 910 79 826 q 385 994 239 994 q 614 910 543 994 q 685 703 685 826 q 661 574 685 632 q 599 478 638 517 q 515 409 561 440 q 422 351 468 378 q 337 298 375 325 q 275 233 299 271 q 251 150 251 196 l 674 150 l 674 0 z "},"3":{"ha":765,"x_min":63,"x_max":692,"o":"m 338 421 l 247 421 l 247 568 l 288 568 q 458 608 413 568 q 504 719 504 647 q 382 856 504 856 q 256 704 256 856 l 81 704 q 165 923 83 851 q 382 994 247 994 q 604 919 529 994 q 679 731 679 844 q 513 500 679 557 q 644 416 597 476 q 692 268 692 356 q 613 67 692 153 q 371 -19 535 -19 q 145 55 228 -19 q 63 285 63 129 l 238 285 q 372 119 238 119 q 472 158 438 119 q 506 269 506 197 q 338 421 506 421 z "},"4":{"ha":776,"x_min":40,"x_max":715,"o":"m 622 0 l 446 0 l 446 239 l 40 239 l 40 415 l 411 972 l 622 972 l 622 389 l 715 389 l 715 239 l 622 239 l 622 0 m 446 389 l 446 764 l 200 389 l 446 389 z "},"5":{"ha":763,"x_min":71,"x_max":699,"o":"m 644 822 l 275 822 l 268 615 q 428 681 333 681 q 626 582 553 681 q 699 342 699 483 q 615 86 699 192 q 367 -19 532 -19 q 149 60 228 -19 q 71 285 71 140 l 239 285 q 365 119 239 119 q 513 332 513 119 q 479 482 513 426 q 378 538 446 538 q 250 433 281 538 l 93 433 l 108 972 l 644 972 l 644 822 z "},"6":{"ha":797,"x_min":69,"x_max":733,"o":"m 699 735 l 533 735 q 492 818 525 789 q 414 847 460 847 q 296 760 338 847 q 254 522 254 672 q 458 622 336 622 q 660 538 586 622 q 733 326 733 454 q 647 83 733 186 q 414 -19 561 -19 q 221 49 300 -19 q 106 228 142 118 q 69 478 69 338 q 105 736 69 622 q 220 922 140 850 q 417 994 300 994 q 606 928 528 994 q 699 735 683 863 m 263 357 q 299 192 263 257 q 413 128 335 128 q 514 177 479 128 q 549 311 549 226 q 513 439 549 394 q 413 483 478 483 q 316 449 356 483 q 263 357 276 414 z "},"7":{"ha":664,"x_min":36,"x_max":629,"o":"m 307 0 l 118 0 l 450 822 l 36 822 l 36 972 l 629 972 l 629 806 l 307 0 z "},"8":{"ha":807,"x_min":72,"x_max":736,"o":"m 564 500 q 692 403 647 468 q 736 258 736 338 q 649 62 736 143 q 404 -19 563 -19 q 159 63 246 -19 q 72 260 72 144 q 116 403 72 339 q 244 500 160 468 q 127 587 168 529 q 86 722 86 644 q 169 914 86 833 q 404 994 253 994 q 638 914 554 994 q 721 722 721 833 q 680 588 721 646 q 564 500 639 529 m 295 165 q 314 141 295 165 q 404 118 333 118 q 513 165 475 118 q 551 278 551 211 q 510 390 551 346 q 404 433 469 433 q 298 390 339 433 q 257 278 257 347 q 295 165 257 211 m 306 617 q 323 596 306 617 q 404 575 340 575 q 502 617 468 575 q 536 718 536 658 q 499 819 536 781 q 404 857 463 857 q 308 819 346 857 q 271 718 271 781 q 306 617 271 658 z "},"9":{"ha":804,"x_min":69,"x_max":733,"o":"m 83 279 l 249 279 q 290 165 253 201 q 381 128 326 128 q 549 460 549 128 q 347 360 485 360 q 144 443 218 360 q 69 653 69 526 q 158 894 69 794 q 394 994 247 994 q 649 858 564 994 q 733 500 733 722 q 713 301 733 393 q 652 137 693 210 q 542 22 611 64 q 383 -19 474 -19 q 176 57 260 -19 q 83 279 93 133 m 540 625 q 504 787 540 726 q 393 847 468 847 q 290 799 326 847 q 253 669 253 751 q 289 544 253 589 q 392 499 325 499 q 488 532 449 499 q 540 625 526 565 z "}," ":{"ha":293,"x_min":0,"x_max":0,"o":""},"!":{"ha":364,"x_min":90,"x_max":274,"o":"m 250 253 l 114 253 l 90 972 l 274 972 l 250 253 m 274 0 l 90 0 l 90 158 l 274 158 l 274 0 z "},"\"":{"ha":544,"x_min":65,"x_max":479,"o":"m 217 625 l 90 625 l 65 972 l 242 972 l 217 625 m 454 625 l 328 625 l 303 972 l 479 972 l 454 625 z "},"#":{"ha":1686,"x_min":128,"x_max":1625,"o":"m 1508 113 l 1189 113 l 1189 231 l 1508 231 l 1508 113 m 983 0 l 772 0 l 304 711 l 304 0 l 128 0 l 128 972 l 338 972 l 807 263 l 807 972 l 983 972 l 983 0 m 1625 567 q 1552 380 1625 458 q 1349 301 1479 301 q 1145 380 1218 301 q 1072 567 1072 458 q 1145 752 1072 674 q 1349 831 1218 831 q 1552 752 1479 831 q 1625 567 1625 674 m 1258 458 q 1274 437 1258 458 q 1349 417 1290 417 q 1438 458 1407 417 q 1469 567 1469 499 q 1438 675 1469 633 q 1349 717 1407 717 q 1258 675 1290 717 q 1226 567 1226 633 q 1258 458 1226 499 z "},"$":{"ha":860,"x_min":72,"x_max":792,"o":"m 478 -139 l 375 -139 l 375 -17 q 155 74 238 -6 q 72 310 72 154 l 242 310 q 375 125 242 150 l 375 421 q 288 445 322 435 q 210 478 254 456 q 142 526 167 500 q 99 597 117 553 q 81 696 81 640 q 152 896 81 814 q 375 992 224 978 l 375 1083 l 478 1083 l 478 992 q 689 906 617 981 q 761 707 761 832 l 592 707 q 478 850 592 828 l 478 572 q 569 549 536 558 q 650 518 601 540 q 725 469 699 496 q 772 396 751 442 q 792 292 792 350 q 710 81 792 165 q 478 -17 629 -4 l 478 -139 m 478 396 l 478 124 q 587 172 556 133 q 618 258 618 210 q 582 344 618 313 q 478 396 546 375 m 375 600 l 375 851 q 276 808 304 842 q 249 733 249 774 q 281 651 249 682 q 375 600 314 621 z "},"%":{"ha":1451,"x_min":56,"x_max":1397,"o":"m 608 731 q 535 544 608 622 q 332 465 463 465 q 128 544 201 465 q 56 731 56 622 q 128 916 56 838 q 332 994 201 994 q 535 916 463 994 q 608 731 608 838 m 242 622 q 258 601 242 622 q 332 581 274 581 q 422 622 390 581 q 453 729 453 663 q 422 839 453 797 q 332 881 390 881 q 242 839 274 881 q 210 731 210 797 q 242 622 210 663 m 528 -37 l 367 -37 l 919 1022 l 1082 1022 l 528 -37 m 1397 244 q 1324 59 1397 138 q 1121 -19 1251 -19 q 917 59 990 -19 q 844 244 844 138 q 917 431 844 353 q 1121 510 990 510 q 1324 431 1251 510 q 1397 244 1397 353 m 1031 135 q 1047 115 1031 135 q 1121 94 1063 94 q 1210 136 1179 94 q 1242 244 1242 178 q 1210 353 1242 311 q 1121 396 1179 396 q 1031 353 1063 396 q 999 244 999 311 q 1031 135 999 176 z "},"&":{"ha":893,"x_min":51,"x_max":883,"o":"m 883 74 l 781 -32 l 658 85 q 388 -19 550 -19 q 147 54 243 -19 q 51 253 51 128 q 108 412 51 350 q 265 526 164 474 q 167 767 167 669 q 238 926 167 857 q 439 994 310 994 q 633 924 571 994 q 694 758 694 854 q 639 603 694 664 q 483 488 583 543 q 643 307 542 413 q 694 458 669 363 l 832 419 q 750 200 804 292 l 883 74 m 558 185 q 351 414 419 329 q 231 247 231 339 q 274 151 231 186 q 392 117 318 117 q 558 185 492 117 m 403 596 q 528 760 528 669 q 505 834 528 803 q 435 865 482 865 q 360 831 383 865 q 338 757 338 796 q 403 596 338 696 z "},"'":{"ha":307,"x_min":65,"x_max":242,"o":"m 217 625 l 90 625 l 65 972 l 242 972 l 217 625 z "},"(":{"ha":421,"x_min":49,"x_max":397,"o":"m 397 -157 l 281 -219 q 113 84 176 -69 q 49 432 49 238 q 113 780 49 626 q 281 1083 176 933 l 397 1021 q 217 432 217 765 q 397 -157 217 96 z "},")":{"ha":421,"x_min":24,"x_max":372,"o":"m 140 -219 l 24 -157 q 204 432 204 96 q 24 1021 204 765 l 140 1083 q 308 780 244 933 q 372 432 372 626 q 308 84 372 238 q 140 -219 244 -69 z "},"*":{"ha":729,"x_min":64,"x_max":665,"o":"m 519 419 l 364 625 l 210 419 l 100 531 l 292 667 l 64 739 l 133 881 l 324 743 l 289 972 l 439 972 l 404 743 l 596 881 l 665 739 l 436 667 l 629 531 l 519 419 z "},"+":{"ha":689,"x_min":60,"x_max":629,"o":"m 414 69 l 275 69 l 275 288 l 60 288 l 60 426 l 275 426 l 275 639 l 414 639 l 414 426 l 629 426 l 629 288 l 414 288 l 414 69 z "},",":{"ha":329,"x_min":79,"x_max":261,"o":"m 175 -124 l 79 -124 l 79 158 l 261 158 l 175 -124 z "},"-":{"ha":514,"x_min":76,"x_max":438,"o":"m 438 282 l 76 282 l 76 421 l 438 421 l 438 282 z "},".":{"ha":335,"x_min":76,"x_max":258,"o":"m 258 0 l 76 0 l 76 158 l 258 158 l 258 0 z "},"/":{"ha":572,"x_min":50,"x_max":524,"o":"m 204 0 l 50 0 l 368 972 l 524 972 l 204 0 z "},":":{"ha":335,"x_min":76,"x_max":258,"o":"m 258 494 l 76 494 l 76 653 l 258 653 l 258 494 m 258 0 l 76 0 l 76 158 l 258 158 l 258 0 z "},";":{"ha":332,"x_min":78,"x_max":260,"o":"m 260 494 l 78 494 l 78 653 l 260 653 l 260 494 m 175 -124 l 78 -124 l 78 158 l 260 158 l 175 -124 z "},"<":{"ha":804,"x_min":60,"x_max":703,"o":"m 703 56 l 60 361 l 60 490 l 703 796 l 703 640 l 256 425 l 703 211 l 703 56 z "},"=":{"ha":778,"x_min":90,"x_max":688,"o":"m 688 149 l 90 149 l 90 288 l 688 288 l 688 149 m 688 426 l 90 426 l 90 565 l 688 565 l 688 426 z "},">":{"ha":804,"x_min":101,"x_max":744,"o":"m 744 361 l 101 56 l 101 211 l 547 425 l 101 640 l 101 796 l 744 490 l 744 361 z "},"?":{"ha":739,"x_min":58,"x_max":664,"o":"m 424 0 l 247 0 l 247 151 l 424 151 l 424 0 m 424 235 l 247 235 q 254 317 247 278 q 291 423 264 378 q 349 494 318 468 q 410 547 381 521 q 460 613 440 572 q 481 711 481 654 q 360 856 481 856 q 302 843 326 856 q 265 813 278 831 q 244 765 251 794 q 234 711 236 735 q 231 651 232 688 l 58 651 q 367 994 58 994 q 594 910 525 994 q 664 700 664 826 q 639 569 664 624 q 579 482 614 514 q 509 420 544 450 q 449 344 474 390 q 424 235 424 299 z "},"@":{"ha":1468,"x_min":71,"x_max":1410,"o":"m 832 -137 l 808 -260 q 686 -267 753 -267 q 410 -221 531 -267 q 217 -96 289 -175 q 108 83 144 -17 q 71 297 71 183 q 99 497 71 399 q 185 685 126 596 q 329 844 244 775 q 538 953 414 913 q 807 993 661 993 q 1078 950 960 993 q 1267 833 1196 907 q 1374 667 1338 758 q 1410 471 1410 575 q 1269 97 1410 250 q 957 -56 1129 -56 q 842 -24 883 -56 q 800 68 800 7 q 806 111 800 90 q 604 38 715 38 q 433 105 492 38 q 374 279 374 172 q 479 563 374 435 q 749 692 585 692 q 915 625 860 692 l 925 674 l 1100 674 q 1053 451 1075 553 q 1019 298 1031 349 q 998 209 1007 247 q 986 155 989 171 q 983 129 983 139 q 1026 93 983 93 q 1190 211 1117 93 q 1264 467 1264 329 q 1145 742 1264 629 q 806 854 1026 854 q 594 821 692 854 q 428 732 496 788 q 313 603 361 676 q 243 453 265 531 q 221 299 221 376 q 347 -17 221 114 q 713 -147 474 -147 q 832 -137 775 -147 m 675 167 q 819 244 763 167 q 876 422 876 321 q 765 558 876 558 q 622 485 683 558 q 560 307 560 411 q 675 167 560 167 z "},"A":{"ha":872,"x_min":3,"x_max":869,"o":"m 869 0 l 690 0 l 615 233 l 256 233 l 181 0 l 3 0 l 333 978 l 539 978 l 869 0 m 569 376 l 436 789 l 303 376 l 569 376 z "},"B":{"ha":832,"x_min":113,"x_max":772,"o":"m 399 0 l 113 0 l 113 972 l 439 972 q 666 905 589 972 q 743 722 743 838 q 594 507 743 572 q 772 276 772 450 q 676 71 772 142 q 399 0 579 0 m 283 153 l 394 153 q 550 188 508 153 q 592 286 592 224 q 543 393 592 360 q 386 426 494 426 l 283 426 l 283 153 m 283 568 l 376 568 q 520 602 478 568 q 563 700 563 636 q 523 792 563 764 q 390 821 483 821 l 283 821 l 283 568 z "},"C":{"ha":1006,"x_min":57,"x_max":963,"o":"m 794 328 l 963 328 q 832 78 953 176 q 536 -19 711 -19 q 197 118 338 -19 q 57 490 57 256 q 98 708 57 610 q 207 867 139 806 q 360 961 275 928 q 539 994 446 994 q 823 902 715 994 q 946 675 931 810 l 778 675 q 692 806 761 765 q 532 847 622 847 q 327 755 411 847 q 243 493 243 663 q 327 222 243 315 q 539 128 411 128 q 710 176 636 128 q 794 328 783 225 z "},"D":{"ha":988,"x_min":113,"x_max":928,"o":"m 338 0 l 113 0 l 113 972 l 354 972 q 718 896 589 972 q 876 724 825 832 q 928 486 928 617 q 896 299 928 383 q 797 146 864 215 q 613 38 731 76 q 338 0 496 0 m 283 151 l 349 151 q 746 489 746 151 q 349 821 746 821 l 283 821 l 283 151 z "},"E":{"ha":794,"x_min":113,"x_max":729,"o":"m 729 0 l 113 0 l 113 972 l 722 972 l 722 822 l 289 822 l 289 572 l 694 572 l 694 422 l 289 422 l 289 150 l 729 150 l 729 0 z "},"F":{"ha":747,"x_min":113,"x_max":701,"o":"m 289 0 l 113 0 l 113 972 l 701 972 l 701 822 l 289 822 l 289 551 l 675 551 l 675 404 l 289 404 l 289 0 z "},"G":{"ha":1019,"x_min":57,"x_max":974,"o":"m 792 335 l 550 335 l 550 476 l 974 476 q 968 382 974 438 q 842 90 950 199 q 547 -19 733 -19 q 196 119 335 -19 q 57 490 57 257 q 98 709 57 611 q 208 868 139 807 q 363 962 276 929 q 543 994 449 994 q 826 897 717 994 q 946 676 935 799 l 776 676 q 692 803 761 758 q 536 847 624 847 q 328 758 414 847 q 243 490 243 668 q 326 223 243 318 q 542 128 408 128 q 709 178 639 128 q 792 335 779 229 z "},"H":{"ha":1004,"x_min":113,"x_max":892,"o":"m 892 0 l 715 0 l 715 421 l 289 421 l 289 0 l 113 0 l 113 972 l 289 972 l 289 571 l 715 571 l 715 972 l 892 972 l 892 0 z "},"I":{"ha":401,"x_min":113,"x_max":289,"o":"m 289 0 l 113 0 l 113 972 l 289 972 l 289 0 z "},"J":{"ha":451,"x_min":36,"x_max":344,"o":"m 36 7 l 36 138 q 97 128 69 128 q 156 154 143 128 q 168 250 168 181 l 168 972 l 344 972 l 344 268 q 143 -19 344 -19 q 36 7 75 -19 z "},"K":{"ha":840,"x_min":113,"x_max":847,"o":"m 847 0 l 628 0 l 289 457 l 289 0 l 113 0 l 113 972 l 289 972 l 289 526 l 606 974 l 813 974 l 471 500 l 847 0 z "},"L":{"ha":701,"x_min":113,"x_max":688,"o":"m 688 0 l 113 0 l 113 972 l 289 972 l 289 150 l 688 150 l 688 0 z "},"M":{"ha":1239,"x_min":113,"x_max":1126,"o":"m 1126 0 l 951 0 l 951 744 l 690 -4 l 550 -4 l 288 744 l 288 0 l 113 0 l 113 972 l 383 972 l 619 306 l 856 972 l 1126 972 l 1126 0 z "},"N":{"ha":1081,"x_min":113,"x_max":968,"o":"m 968 0 l 757 0 l 289 711 l 289 0 l 113 0 l 113 972 l 322 972 l 792 263 l 792 972 l 968 972 l 968 0 z "},"O":{"ha":1104,"x_min":56,"x_max":1049,"o":"m 794 38 q 738 9 794 38 q 551 -19 682 -19 q 310 38 421 -19 q 127 214 199 96 q 56 488 56 332 q 203 857 56 719 q 551 994 350 994 q 901 857 754 994 q 1049 488 1049 719 q 977 214 1049 332 q 794 38 906 96 m 551 128 q 778 226 693 128 q 863 488 863 325 q 777 748 863 649 q 551 847 692 847 q 326 748 411 847 q 242 488 242 649 q 326 226 242 325 q 551 128 411 128 z "},"P":{"ha":793,"x_min":113,"x_max":756,"o":"m 283 0 l 113 0 l 113 972 l 393 972 q 672 894 588 972 q 756 667 756 815 q 670 435 756 517 q 389 354 585 354 l 283 354 l 283 0 m 283 504 l 390 504 q 533 544 489 504 q 576 664 576 585 q 533 782 576 743 q 390 821 490 821 l 283 821 l 283 504 z "},"Q":{"ha":1113,"x_min":56,"x_max":1060,"o":"m 979 -11 l 857 79 q 551 -19 725 -19 q 310 38 421 -19 q 127 214 199 96 q 56 488 56 332 q 203 857 56 719 q 551 994 350 994 q 901 857 754 994 q 1049 488 1049 719 q 960 186 1049 314 l 1060 111 l 979 -11 m 722 178 l 543 311 l 625 433 l 817 289 q 863 488 863 376 q 777 748 863 649 q 551 847 692 847 q 326 748 411 847 q 242 488 242 649 q 326 226 242 325 q 551 128 411 128 q 722 178 651 128 z "},"R":{"ha":819,"x_min":113,"x_max":764,"o":"m 764 0 l 567 0 l 361 383 l 283 383 l 283 0 l 113 0 l 113 972 l 379 972 q 635 918 550 972 q 751 689 751 844 q 694 512 751 583 q 535 410 638 440 l 764 0 m 283 525 l 379 525 q 572 674 572 525 q 528 785 572 749 q 381 821 485 821 l 283 821 l 283 525 z "},"S":{"ha":831,"x_min":60,"x_max":779,"o":"m 749 707 l 579 707 q 411 856 579 856 q 276 816 315 856 q 236 725 236 776 q 292 633 236 665 q 428 583 349 600 q 588 541 508 565 q 723 455 667 517 q 779 292 779 393 q 686 68 779 156 q 415 -19 593 -19 q 158 60 256 -19 q 60 310 60 139 l 229 310 q 419 121 229 121 q 564 162 522 121 q 606 258 606 203 q 576 337 606 306 q 499 385 546 368 q 394 415 451 401 q 279 446 336 428 q 175 491 222 464 q 98 569 128 518 q 68 694 68 621 q 156 910 68 825 q 419 994 244 994 q 665 919 581 994 q 749 707 749 843 z "},"T":{"ha":728,"x_min":22,"x_max":706,"o":"m 451 0 l 275 0 l 275 822 l 22 822 l 22 972 l 706 972 l 706 822 l 451 822 l 451 0 z "},"U":{"ha":971,"x_min":106,"x_max":867,"o":"m 690 372 l 690 972 l 867 972 l 867 371 q 810 115 867 197 q 486 -19 715 -19 q 164 115 258 -19 q 106 371 106 200 l 106 972 l 282 972 l 282 372 q 306 221 282 269 q 486 128 351 128 q 668 221 622 128 q 690 372 690 267 z "},"V":{"ha":856,"x_min":8,"x_max":847,"o":"m 531 -6 l 326 -6 l 8 972 l 192 972 l 428 208 l 665 972 l 847 972 l 531 -6 z "},"W":{"ha":1368,"x_min":22,"x_max":1346,"o":"m 1103 -6 l 899 -6 l 683 740 l 469 -6 l 265 -6 l 22 972 l 206 972 l 374 249 l 578 972 l 790 972 l 994 249 l 1163 972 l 1346 972 l 1103 -6 z "},"X":{"ha":814,"x_min":6,"x_max":806,"o":"m 806 0 l 607 0 l 403 340 l 200 0 l 6 0 l 306 506 l 29 972 l 228 972 l 413 664 l 594 972 l 790 972 l 510 496 l 806 0 z "},"Y":{"ha":785,"x_min":-1,"x_max":785,"o":"m 481 0 l 304 0 l 304 356 l -1 972 l 192 972 l 392 558 l 593 972 l 785 972 l 481 356 l 481 0 z "},"Z":{"ha":807,"x_min":47,"x_max":749,"o":"m 747 0 l 47 0 l 47 186 l 546 822 l 82 822 l 82 972 l 749 972 l 749 801 l 240 150 l 747 150 l 747 0 z "},"[":{"ha":467,"x_min":94,"x_max":424,"o":"m 424 -169 l 94 -169 l 94 972 l 424 972 l 424 836 l 265 836 l 265 -33 l 424 -33 l 424 -169 z "},"\\":{"ha":572,"x_min":49,"x_max":522,"o":"m 522 0 l 367 0 l 49 972 l 203 972 l 522 0 z "},"]":{"ha":467,"x_min":43,"x_max":372,"o":"m 372 -169 l 43 -169 l 43 -33 l 201 -33 l 201 836 l 43 836 l 43 972 l 372 972 l 372 -169 z "},"^":{"ha":719,"x_min":69,"x_max":650,"o":"m 650 551 l 499 551 l 358 825 l 219 551 l 69 551 l 274 972 l 443 972 l 650 551 z "},"_":{"ha":786,"x_min":74,"x_max":713,"o":"m 713 -60 l 74 -60 l 74 58 l 713 58 l 713 -60 z "},"`":{"ha":438,"x_min":69,"x_max":368,"o":"m 368 722 l 239 722 l 69 928 l 267 928 l 368 722 z "},"a":{"ha":693,"x_min":42,"x_max":617,"o":"m 410 132 q 426 145 410 132 q 442 200 442 158 q 410 265 442 242 q 331 289 379 289 q 249 263 278 289 q 219 194 219 236 q 247 130 219 154 q 324 106 274 106 q 410 132 378 106 m 617 0 l 442 0 l 442 64 q 260 -11 378 -11 q 98 47 154 -11 q 42 189 42 104 q 104 338 42 279 q 281 397 167 397 q 439 342 385 397 l 439 375 q 434 451 439 424 q 406 499 429 478 q 336 519 382 519 q 238 446 253 519 l 76 446 q 346 643 101 643 q 557 572 497 643 q 617 374 617 500 l 617 0 z "},"b":{"ha":775,"x_min":81,"x_max":731,"o":"m 256 0 l 81 0 l 81 994 l 256 994 l 256 567 q 443 643 329 643 q 654 549 578 643 q 731 319 731 454 q 713 199 731 257 q 659 94 694 142 q 566 17 624 46 q 435 -11 508 -11 q 256 58 322 -11 l 256 0 m 393 122 q 507 179 467 122 q 547 319 547 236 q 508 458 547 403 q 397 514 469 514 q 285 460 325 514 q 246 315 246 407 q 284 174 246 226 q 393 122 322 122 z "},"c":{"ha":710,"x_min":44,"x_max":672,"o":"m 507 233 l 672 233 q 593 62 664 135 q 383 -11 522 -11 q 134 84 224 -11 q 44 315 44 179 q 135 547 44 451 q 383 643 225 643 q 579 581 508 643 q 664 419 650 519 l 500 419 q 385 513 481 513 q 270 460 311 513 q 229 314 229 408 q 270 169 229 221 q 386 118 311 118 q 507 233 493 118 z "},"d":{"ha":776,"x_min":46,"x_max":696,"o":"m 696 0 l 521 0 l 521 63 q 335 -11 450 -11 q 122 83 199 -11 q 46 315 46 178 q 127 550 46 457 q 342 643 208 643 q 521 576 450 643 l 521 994 l 696 994 l 696 0 m 379 117 q 491 171 451 117 q 531 317 531 225 q 488 461 531 413 q 382 510 446 510 q 272 457 314 510 q 229 314 229 404 q 269 172 229 228 q 379 117 308 117 z "},"e":{"ha":733,"x_min":44,"x_max":694,"o":"m 694 282 l 229 282 q 273 160 232 203 q 386 118 314 118 q 517 206 494 118 l 689 206 q 597 53 675 117 q 386 -11 519 -11 q 133 84 222 -11 q 44 317 44 179 q 133 549 44 454 q 383 643 221 643 q 615 551 536 643 q 694 282 694 460 m 236 389 l 515 389 q 382 517 503 517 q 236 389 263 517 z "},"f":{"ha":443,"x_min":39,"x_max":417,"o":"m 297 0 l 121 0 l 121 485 l 39 485 l 39 625 l 121 625 l 121 722 q 176 922 121 849 q 342 994 231 994 q 413 982 383 994 l 413 865 q 379 869 394 869 q 315 834 333 869 q 297 721 297 799 l 297 625 l 417 625 l 417 485 l 297 485 l 297 0 z "},"g":{"ha":775,"x_min":44,"x_max":694,"o":"m 519 -8 l 519 65 q 338 -11 451 -11 q 122 83 199 -11 q 44 314 44 178 q 127 549 44 456 q 340 643 210 643 q 519 572 449 643 l 519 625 l 694 625 l 694 -7 q 617 -222 694 -139 q 374 -304 539 -304 q 164 -247 243 -304 q 85 -71 85 -190 l 247 -71 q 275 -148 247 -119 q 376 -176 303 -176 q 488 -138 456 -176 q 519 -8 519 -100 m 379 117 q 490 169 450 117 q 529 315 529 222 q 488 462 529 414 q 382 510 447 510 q 270 458 313 510 q 228 315 228 406 q 267 173 228 229 q 379 117 307 117 z "},"h":{"ha":753,"x_min":81,"x_max":676,"o":"m 676 0 l 500 0 l 500 371 q 482 466 500 436 q 413 496 464 496 q 299 449 343 496 q 256 325 256 401 l 256 0 l 81 0 l 81 994 l 256 994 l 256 533 q 472 643 335 643 q 676 403 676 643 l 676 0 z "},"i":{"ha":336,"x_min":81,"x_max":256,"o":"m 256 0 l 81 0 l 81 625 l 256 625 l 256 0 m 256 776 l 81 776 l 81 929 l 256 929 l 256 776 z "},"j":{"ha":336,"x_min":-1,"x_max":256,"o":"m -1 -267 l -1 -142 q 10 -143 4 -143 q 67 -113 53 -143 q 81 -6 81 -83 l 81 625 l 256 625 l 256 8 q 202 -195 256 -121 q 36 -269 149 -269 q -1 -267 10 -269 m 256 776 l 81 776 l 81 929 l 256 929 l 256 776 z "},"k":{"ha":707,"x_min":81,"x_max":701,"o":"m 701 0 l 490 0 l 256 310 l 256 0 l 81 0 l 81 994 l 256 994 l 256 361 l 471 625 l 683 625 l 438 335 l 701 0 z "},"l":{"ha":342,"x_min":83,"x_max":258,"o":"m 258 0 l 83 0 l 83 994 l 258 994 l 258 0 z "},"m":{"ha":1119,"x_min":81,"x_max":1043,"o":"m 1043 0 l 868 0 l 868 367 q 855 458 868 431 q 794 486 842 486 q 693 447 738 486 q 649 328 649 408 l 649 0 l 472 0 l 472 379 q 457 462 472 438 q 401 486 442 486 q 300 447 344 486 q 256 325 256 407 l 256 0 l 81 0 l 81 625 l 256 625 l 256 535 q 444 643 322 643 q 625 525 581 643 q 833 643 701 643 q 1043 376 1043 643 l 1043 0 z "},"n":{"ha":753,"x_min":81,"x_max":676,"o":"m 676 0 l 500 0 l 500 367 q 479 465 500 433 q 404 496 458 496 q 295 449 335 496 q 256 325 256 401 l 256 0 l 81 0 l 81 625 l 256 625 l 256 535 q 464 643 335 643 q 676 381 676 643 l 676 0 z "},"o":{"ha":779,"x_min":43,"x_max":736,"o":"m 644 547 q 690 498 644 547 q 736 315 736 450 q 644 85 736 181 q 389 -11 553 -11 q 134 85 225 -11 q 43 315 43 181 q 135 547 43 450 q 389 643 226 643 q 644 547 553 643 m 269 174 q 290 148 269 174 q 389 122 311 122 q 508 174 467 122 q 550 314 550 226 q 508 456 550 403 q 389 510 467 510 q 269 456 311 510 q 228 314 228 403 q 269 174 228 226 z "},"p":{"ha":775,"x_min":81,"x_max":731,"o":"m 256 -268 l 81 -268 l 81 625 l 256 625 l 256 572 q 438 643 324 643 q 653 548 575 643 q 731 317 731 453 q 649 83 731 178 q 433 -11 567 -11 q 256 56 322 -11 l 256 -268 m 394 122 q 506 174 464 122 q 547 317 547 226 q 508 458 547 403 q 397 514 469 514 q 286 461 326 514 q 246 315 246 408 q 288 170 246 218 q 394 122 331 122 z "},"q":{"ha":775,"x_min":44,"x_max":694,"o":"m 694 -268 l 519 -268 l 519 58 q 336 -11 447 -11 q 122 83 199 -11 q 44 314 44 178 q 128 549 44 456 q 342 643 211 643 q 519 574 447 643 l 519 625 l 694 625 l 694 -268 m 381 117 q 490 169 450 117 q 529 317 529 222 q 489 462 529 414 q 385 510 449 510 q 272 458 315 510 q 228 314 228 406 q 267 173 228 229 q 381 117 307 117 z "},"r":{"ha":533,"x_min":81,"x_max":514,"o":"m 256 0 l 81 0 l 81 625 l 256 625 l 256 525 q 444 643 329 643 q 514 626 489 643 l 514 483 q 446 493 489 493 q 256 221 256 493 l 256 0 z "},"s":{"ha":653,"x_min":49,"x_max":610,"o":"m 590 461 l 424 461 q 328 531 418 531 q 254 513 278 531 q 231 469 231 496 q 269 418 231 436 q 364 390 308 400 q 476 363 419 379 q 571 307 532 347 q 610 200 610 267 q 542 50 610 111 q 326 -11 474 -11 q 49 199 58 -11 l 214 203 q 328 103 218 103 q 405 122 379 103 q 431 172 431 142 q 392 228 431 208 q 297 258 353 247 q 185 283 240 268 q 90 337 129 297 q 51 442 51 376 q 125 589 51 535 q 332 643 199 643 q 521 596 454 643 q 590 461 588 549 z "},"t":{"ha":518,"x_min":26,"x_max":476,"o":"m 476 151 l 476 21 q 339 -11 424 -11 q 119 231 119 -11 l 119 485 l 26 485 l 26 625 l 119 625 l 119 810 l 296 868 l 296 625 l 476 625 l 476 485 l 296 485 l 296 281 q 311 166 296 197 q 381 135 326 135 q 476 151 426 135 z "},"u":{"ha":753,"x_min":76,"x_max":672,"o":"m 672 0 l 496 0 l 496 97 q 292 -11 422 -11 q 124 67 181 -11 q 76 250 76 131 l 76 625 l 251 625 l 251 265 q 272 167 251 199 q 349 136 293 136 q 457 183 418 136 q 496 310 496 229 l 496 625 l 672 625 l 672 0 z "},"v":{"ha":685,"x_min":7,"x_max":678,"o":"m 456 -4 l 229 -4 l 7 625 l 197 625 l 342 172 l 488 625 l 678 625 l 456 -4 z "},"w":{"ha":1114,"x_min":14,"x_max":1100,"o":"m 907 -4 l 678 -4 l 557 403 l 436 -4 l 207 -4 l 14 625 l 201 625 l 324 172 l 461 626 l 653 626 l 790 172 l 913 625 l 1100 625 l 907 -4 z "},"x":{"ha":675,"x_min":14,"x_max":663,"o":"m 663 0 l 458 0 l 333 182 l 217 0 l 14 0 l 233 325 l 24 625 l 226 625 l 339 460 l 446 625 l 650 625 l 440 315 l 663 0 z "},"y":{"ha":671,"x_min":7,"x_max":663,"o":"m 94 -251 l 94 -117 q 161 -131 126 -131 q 231 -105 206 -131 q 275 -15 256 -79 l 290 35 l 222 35 l 7 625 l 193 625 l 339 189 l 476 625 l 663 625 l 443 -36 q 344 -210 404 -153 q 186 -268 283 -268 q 94 -251 131 -268 z "},"z":{"ha":647,"x_min":47,"x_max":593,"o":"m 593 0 l 47 0 l 47 154 l 361 482 l 67 482 l 67 625 l 593 625 l 593 479 l 272 143 l 593 143 l 593 0 z "},"{":{"ha":531,"x_min":25,"x_max":489,"o":"m 489 -192 l 394 -192 q 285 -178 331 -192 q 215 -145 240 -165 q 177 -89 190 -125 q 160 -19 164 -53 q 157 65 157 14 l 157 183 q 140 299 157 271 q 57 326 122 326 l 25 326 l 25 467 l 57 467 q 140 494 122 467 q 157 610 157 522 l 157 715 q 160 800 157 767 q 177 869 164 833 q 215 926 190 906 q 285 959 240 946 q 394 972 331 972 l 489 972 l 489 836 l 425 836 q 344 815 360 836 q 328 718 328 794 l 328 601 q 322 511 328 544 q 285 444 315 478 q 199 396 256 411 q 269 364 242 383 q 308 315 296 344 q 324 259 321 286 q 328 190 328 232 l 328 61 q 344 -35 328 -14 q 425 -56 360 -56 l 489 -56 l 489 -192 z "},"|":{"ha":358,"x_min":92,"x_max":267,"o":"m 267 -347 l 92 -347 l 92 972 l 267 972 l 267 -347 z "},"}":{"ha":529,"x_min":42,"x_max":506,"o":"m 136 -192 l 42 -192 l 42 -56 l 106 -56 q 185 -35 169 -56 q 201 61 201 -14 l 201 190 q 205 259 201 232 q 221 315 208 286 q 261 364 233 344 q 332 396 289 383 q 226 467 250 418 q 201 601 201 515 l 201 718 q 185 815 201 794 q 106 836 169 836 l 42 836 l 42 972 l 136 972 q 245 959 200 972 q 315 926 290 946 q 352 869 339 906 q 369 799 365 832 q 372 715 372 767 l 372 610 q 390 494 372 521 q 474 467 407 467 l 506 467 l 506 326 l 474 326 q 390 299 407 326 q 372 183 372 272 l 372 65 q 369 -19 372 14 q 352 -88 365 -51 q 315 -145 339 -125 q 245 -178 290 -165 q 136 -192 200 -192 z "},"~":{"ha":689,"x_min":65,"x_max":628,"o":"m 628 892 l 628 832 q 511 653 628 653 q 355 705 451 653 q 226 757 258 757 q 192 740 203 757 q 182 672 182 724 l 65 672 l 65 728 q 193 911 65 911 q 351 859 256 911 q 471 807 447 807 q 502 824 493 807 q 511 892 511 840 l 628 892 z "}," ":{"ha":293,"x_min":0,"x_max":0,"o":""},"¡":{"ha":333,"x_min":75,"x_max":258,"o":"m 235 451 l 258 -268 l 75 -268 l 99 451 l 235 451 m 258 704 l 258 546 l 75 546 l 75 704 l 258 704 z "},"¢":{"ha":792,"x_min":74,"x_max":726,"o":"m 388 0 l 304 0 l 325 140 q 139 266 204 171 q 74 488 74 361 q 167 744 74 640 q 428 847 261 847 l 447 972 l 531 972 l 511 839 q 653 760 600 819 q 718 615 706 700 l 549 615 q 490 700 535 676 l 426 263 q 556 382 542 263 l 726 382 q 703 292 722 335 q 651 212 685 250 q 560 151 618 174 q 426 128 501 128 l 406 128 l 388 0 m 346 282 l 408 713 q 261 488 261 697 q 346 282 261 332 z "},"£":{"ha":863,"x_min":68,"x_max":790,"o":"m 790 0 l 71 0 l 71 122 l 219 150 l 219 401 l 68 401 l 68 549 l 219 549 l 219 676 q 306 917 219 839 q 529 994 392 994 q 790 854 697 994 l 696 758 q 544 846 646 846 q 432 799 468 846 q 396 681 396 751 l 396 549 l 722 549 l 722 401 l 396 401 l 396 150 l 790 150 l 790 0 z "},"¤":{"ha":851,"x_min":82,"x_max":768,"o":"m 672 138 l 579 231 q 425 188 511 188 q 271 231 343 188 l 179 139 l 83 236 l 175 326 q 131 481 131 400 q 174 633 131 564 l 82 724 l 176 824 l 269 731 q 425 775 340 775 q 579 731 513 775 l 672 824 l 768 726 l 675 635 q 719 481 719 561 q 675 326 719 400 l 768 236 l 672 138 m 582 482 q 535 592 582 546 q 425 638 488 638 q 314 592 360 638 q 268 482 268 546 q 315 371 268 417 q 425 325 361 325 q 535 371 489 325 q 582 482 582 417 z "},"¥":{"ha":914,"x_min":64,"x_max":850,"o":"m 818 129 l 546 129 l 546 0 l 369 0 l 369 129 l 96 129 l 96 261 l 369 261 l 369 328 l 365 353 l 96 353 l 96 485 l 306 485 l 64 972 l 257 972 l 457 558 l 658 972 l 850 972 l 610 485 l 818 485 l 818 353 l 549 353 l 546 328 l 546 261 l 818 261 l 818 129 z "},"¦":{"ha":369,"x_min":97,"x_max":272,"o":"m 272 -347 l 97 -347 l 97 181 l 272 181 l 272 -347 m 272 444 l 97 444 l 97 972 l 272 972 l 272 444 z "},"§":{"ha":721,"x_min":78,"x_max":646,"o":"m 78 194 l 243 199 q 357 99 247 99 q 434 118 408 99 q 460 168 460 138 q 421 227 460 204 q 326 266 382 250 q 214 302 269 282 q 119 366 158 322 q 81 475 81 410 q 189 643 81 592 q 88 793 88 699 q 161 940 88 886 q 368 994 235 994 q 557 947 490 994 q 626 813 624 900 l 460 813 q 365 882 454 882 q 290 865 314 882 q 267 821 267 847 q 306 763 267 788 q 400 720 344 739 q 512 678 456 701 q 607 607 568 654 q 646 493 646 560 q 560 329 646 385 q 639 196 639 279 q 571 46 639 107 q 356 -15 503 -15 q 78 194 88 -15 m 344 568 q 260 506 260 556 q 306 435 260 464 q 399 400 353 407 q 467 463 467 408 q 344 568 467 542 z "},"¨":{"ha":535,"x_min":69,"x_max":465,"o":"m 229 722 l 69 722 l 69 865 l 229 865 l 229 722 m 465 722 l 306 722 l 306 865 l 465 865 l 465 722 z "},"©":{"ha":1160,"x_min":68,"x_max":1092,"o":"m 581 -24 q 219 126 369 -24 q 68 489 68 276 q 219 851 68 701 q 581 1000 369 1000 q 942 851 793 1000 q 1092 489 1092 701 q 942 126 1092 276 q 581 -24 793 -24 m 278 187 q 341 124 278 187 q 581 61 404 61 q 882 186 757 61 q 1007 489 1007 311 q 883 791 1007 667 q 581 915 758 915 q 278 791 404 915 q 153 489 153 667 q 278 187 153 313 m 715 406 l 868 406 q 794 247 860 314 q 600 179 729 179 q 367 269 451 179 q 283 488 283 360 q 368 705 283 614 q 600 796 453 796 q 781 738 715 796 q 861 588 847 681 l 708 588 q 600 675 689 675 q 494 625 532 675 q 457 486 457 575 q 494 349 457 399 q 601 300 532 300 q 715 406 701 300 z "},"ª":{"ha":606,"x_min":53,"x_max":529,"o":"m 381 586 q 356 635 381 617 q 290 653 331 653 q 226 633 250 653 q 203 582 203 614 q 226 533 203 550 q 286 517 249 517 q 353 535 326 517 q 381 586 381 554 m 529 424 l 381 424 l 381 474 q 232 414 325 414 q 99 460 146 414 q 53 578 53 507 q 103 699 53 650 q 243 749 153 749 q 379 703 333 749 l 379 732 q 364 813 379 786 q 297 839 349 839 q 217 786 229 839 l 79 786 q 304 944 99 944 q 478 889 428 944 q 529 733 529 833 l 529 424 z "},"«":{"ha":731,"x_min":47,"x_max":682,"o":"m 397 49 l 263 49 l 47 358 l 263 668 l 397 668 l 214 358 l 397 49 m 682 49 l 547 49 l 332 358 l 547 668 l 682 668 l 499 358 l 682 49 z "},"¬":{"ha":756,"x_min":63,"x_max":660,"o":"m 660 239 l 521 239 l 521 486 l 63 486 l 63 625 l 660 625 l 660 239 z "},"­":{"ha":514,"x_min":76,"x_max":438,"o":"m 438 282 l 76 282 l 76 421 l 438 421 l 438 282 z "},"®":{"ha":1160,"x_min":68,"x_max":1092,"o":"m 581 -24 q 219 126 369 -24 q 68 489 68 276 q 219 851 68 701 q 581 1000 369 1000 q 942 851 793 1000 q 1092 489 1092 701 q 942 126 1092 276 q 581 -24 793 -24 m 278 187 q 341 124 278 187 q 581 61 404 61 q 882 186 757 61 q 1007 489 1007 311 q 883 791 1007 667 q 581 915 758 915 q 278 791 404 915 q 153 489 153 667 q 278 187 153 313 m 832 183 l 689 183 l 553 421 l 521 421 l 521 183 l 394 183 l 394 813 l 571 813 q 825 626 825 813 q 785 503 825 553 q 672 439 746 454 l 832 183 m 521 525 l 564 525 q 694 618 694 525 q 565 701 694 701 l 521 701 l 521 525 z "},"¯":{"ha":556,"x_min":58,"x_max":496,"o":"m 496 750 l 58 750 l 58 874 l 496 874 l 496 750 z "},"°":{"ha":501,"x_min":49,"x_max":453,"o":"m 453 764 q 393 620 453 679 q 250 561 333 561 q 108 620 167 561 q 49 764 49 679 q 107 907 49 849 q 250 965 165 965 q 393 906 333 965 q 453 764 453 847 m 321 693 q 335 708 321 693 q 350 764 350 722 q 321 834 350 806 q 250 863 292 863 q 180 833 208 863 q 151 764 151 804 q 181 693 151 722 q 250 664 210 664 q 321 693 292 664 z "},"±":{"ha":728,"x_min":79,"x_max":649,"o":"m 649 381 l 433 381 l 433 197 l 294 197 l 294 381 l 79 381 l 79 519 l 294 519 l 294 704 l 433 704 l 433 519 l 649 519 l 649 381 m 649 0 l 79 0 l 79 139 l 649 139 l 649 0 z "},"²":{"ha":469,"x_min":46,"x_max":433,"o":"m 433 397 l 46 397 l 46 489 q 73 594 46 551 q 139 658 100 636 q 217 698 178 679 q 283 747 256 717 q 310 819 310 776 q 295 861 310 842 q 250 881 281 881 q 172 786 172 881 l 49 786 q 96 941 49 888 q 235 994 143 994 q 378 948 322 994 q 433 818 433 901 q 414 726 433 767 q 365 664 394 686 q 301 621 336 642 q 238 587 267 600 q 189 553 208 574 q 169 510 169 533 l 433 510 l 433 397 z "},"³":{"ha":472,"x_min":38,"x_max":436,"o":"m 197 639 l 181 639 l 181 753 q 304 824 304 753 q 285 867 304 854 q 240 881 265 881 q 191 861 208 881 q 174 817 174 842 l 50 817 q 239 994 50 994 q 381 951 335 994 q 428 842 428 907 q 324 700 428 743 q 436 557 436 668 q 388 435 436 485 q 236 386 339 386 q 88 433 139 386 q 38 572 38 481 l 161 572 q 185 517 161 535 q 240 499 208 499 q 313 575 313 499 q 197 639 313 639 z "},"´":{"ha":438,"x_min":69,"x_max":368,"o":"m 199 722 l 69 722 l 169 928 l 368 928 l 199 722 z "},"µ":{"ha":1115,"x_min":56,"x_max":1078,"o":"m 997 -24 l 856 79 q 551 -19 725 -19 q 310 38 421 -19 q 127 214 199 96 q 56 488 56 332 q 203 857 56 719 q 551 994 350 994 q 901 857 754 994 q 1049 488 1049 719 q 960 186 1049 317 l 1078 99 l 997 -24 m 551 128 q 778 226 693 128 q 863 488 863 325 q 777 748 863 649 q 551 847 692 847 q 326 748 411 847 q 242 488 242 649 q 326 226 242 325 q 551 128 411 128 z "},"¶":{"ha":857,"x_min":56,"x_max":726,"o":"m 726 -68 l 589 -68 l 589 824 l 463 824 l 463 -68 l 325 -68 l 325 411 q 192 445 249 417 q 108 517 136 474 q 68 602 81 560 q 56 688 56 644 q 149 900 56 829 q 397 971 242 971 l 726 971 l 726 -68 z "},"·":{"ha":335,"x_min":76,"x_max":258,"o":"m 258 407 l 76 407 l 76 565 l 258 565 l 258 407 z "},"¸":{"ha":463,"x_min":74,"x_max":407,"o":"m 74 -282 l 96 -199 q 194 -217 135 -217 q 254 -201 231 -217 q 278 -160 278 -185 q 263 -129 278 -142 q 222 -115 249 -117 q 143 -118 188 -111 l 182 10 l 279 10 l 260 -51 q 365 -84 324 -54 q 407 -165 407 -114 q 348 -268 407 -231 q 203 -306 289 -306 q 74 -282 133 -306 z "},"¹":{"ha":331,"x_min":46,"x_max":294,"o":"m 294 393 l 178 393 l 178 819 q 46 696 129 754 l 46 824 q 183 976 125 882 l 294 976 l 294 393 z "},"º":{"ha":647,"x_min":47,"x_max":600,"o":"m 600 679 q 527 494 600 572 q 324 415 454 415 q 120 494 193 415 q 47 679 47 572 q 120 866 47 788 q 324 944 193 944 q 527 866 454 944 q 600 679 600 788 m 233 570 q 249 550 233 570 q 324 529 265 529 q 413 571 382 529 q 444 679 444 613 q 413 789 444 747 q 324 831 382 831 q 233 788 265 831 q 201 679 201 746 q 233 570 201 611 z "},"»":{"ha":731,"x_min":49,"x_max":683,"o":"m 183 49 l 49 49 l 232 358 l 49 668 l 183 668 l 399 358 l 183 49 m 468 49 l 333 49 l 517 358 l 333 668 l 468 668 l 683 358 l 468 49 z "},"¼":{"ha":1111,"x_min":63,"x_max":1049,"o":"m 874 972 l 356 0 l 222 0 l 740 972 l 874 972 m 311 393 l 194 393 l 194 819 q 63 696 146 754 l 63 824 q 200 976 142 882 l 311 976 l 311 393 m 986 0 l 869 0 l 869 128 l 607 128 l 607 254 l 838 583 l 986 583 l 986 240 l 1049 240 l 1049 128 l 986 128 l 986 0 m 869 240 l 869 451 l 729 240 l 869 240 z "},"½":{"ha":1183,"x_min":63,"x_max":1121,"o":"m 874 972 l 356 0 l 222 0 l 740 972 l 874 972 m 311 393 l 194 393 l 194 819 q 63 696 146 754 l 63 824 q 200 976 142 882 l 311 976 l 311 393 m 1121 0 l 733 0 l 733 92 q 760 197 733 154 q 826 260 788 239 q 904 301 865 282 q 970 349 943 319 q 997 422 997 379 q 983 464 997 444 q 938 483 968 483 q 860 389 860 483 l 736 389 q 783 544 736 490 q 922 597 831 597 q 1065 551 1010 597 q 1121 421 1121 504 q 1101 329 1121 369 q 1053 267 1082 289 q 989 224 1024 244 q 925 190 954 203 q 876 156 896 176 q 857 113 857 136 l 1121 113 l 1121 0 z "},"¾":{"ha":1215,"x_min":63,"x_max":1153,"o":"m 978 972 l 460 0 l 326 0 l 844 972 l 978 972 m 1090 0 l 974 0 l 974 128 l 711 128 l 711 254 l 942 583 l 1090 583 l 1090 240 l 1153 240 l 1153 128 l 1090 128 l 1090 0 m 974 240 l 974 451 l 833 240 l 974 240 m 222 639 l 206 639 l 206 753 q 329 824 329 753 q 310 867 329 854 q 265 881 290 881 q 216 861 233 881 q 199 817 199 842 l 75 817 q 264 994 75 994 q 406 951 360 994 q 453 842 453 907 q 349 700 453 743 q 461 557 461 668 q 413 435 461 485 q 261 386 364 386 q 113 433 164 386 q 63 572 63 481 l 186 572 q 210 517 186 535 q 265 499 233 499 q 338 575 338 499 q 222 639 338 639 z "},"¿":{"ha":718,"x_min":63,"x_max":668,"o":"m 479 553 l 303 553 l 303 704 l 479 704 l 479 553 m 496 53 l 668 53 q 360 -290 668 -290 q 132 -206 201 -290 q 63 4 63 -122 q 88 135 63 81 q 148 222 113 190 q 218 284 183 254 q 278 360 253 314 q 303 468 303 406 l 479 468 q 472 386 479 425 q 435 280 463 325 q 377 208 408 235 q 316 156 346 182 q 266 90 286 131 q 246 -7 246 50 q 367 -151 246 -151 q 435 -135 408 -151 q 474 -85 463 -118 q 490 -22 486 -51 q 496 53 494 7 z "},"À":{"ha":872,"x_min":3,"x_max":869,"o":"m 869 0 l 690 0 l 615 233 l 256 233 l 181 0 l 3 0 l 333 978 l 539 978 l 869 0 m 569 376 l 436 789 l 303 376 l 569 376 m 518 1069 l 389 1069 l 219 1275 l 418 1275 l 518 1069 z "},"Á":{"ha":872,"x_min":3,"x_max":869,"o":"m 869 0 l 690 0 l 615 233 l 256 233 l 181 0 l 3 0 l 333 978 l 539 978 l 869 0 m 569 376 l 436 789 l 303 376 l 569 376 m 475 1069 l 346 1069 l 447 1275 l 644 1275 l 475 1069 z "},"Â":{"ha":872,"x_min":3,"x_max":869,"o":"m 869 0 l 690 0 l 615 233 l 256 233 l 181 0 l 3 0 l 333 978 l 539 978 l 869 0 m 569 376 l 436 789 l 303 376 l 569 376 m 661 1069 l 525 1069 l 435 1185 l 346 1069 l 210 1069 l 331 1275 l 539 1275 l 661 1069 z "},"Ã":{"ha":872,"x_min":3,"x_max":869,"o":"m 869 0 l 690 0 l 615 233 l 256 233 l 181 0 l 3 0 l 333 978 l 539 978 l 869 0 m 569 376 l 436 789 l 303 376 l 569 376 m 571 1240 l 665 1240 q 635 1122 664 1171 q 549 1072 606 1074 q 511 1075 524 1072 q 424 1106 476 1079 q 349 1132 372 1132 q 300 1071 303 1132 l 204 1071 q 325 1239 207 1229 q 364 1238 347 1242 q 444 1209 390 1235 q 518 1183 497 1183 q 571 1240 568 1183 z "},"Ä":{"ha":872,"x_min":3,"x_max":869,"o":"m 869 0 l 690 0 l 615 233 l 256 233 l 181 0 l 3 0 l 333 978 l 539 978 l 869 0 m 569 376 l 436 789 l 303 376 l 569 376 m 397 1069 l 238 1069 l 238 1213 l 397 1213 l 397 1069 m 633 1069 l 474 1069 l 474 1213 l 633 1213 l 633 1069 z "},"Å":{"ha":872,"x_min":3,"x_max":869,"o":"m 869 0 l 690 0 l 615 233 l 256 233 l 181 0 l 3 0 l 333 978 l 539 978 l 869 0 m 569 376 l 436 789 l 303 376 l 569 376 m 569 1183 q 530 1088 569 1128 q 435 1049 490 1049 q 340 1088 379 1049 q 301 1183 301 1128 q 340 1280 301 1240 q 435 1319 379 1319 q 531 1280 492 1319 q 569 1183 569 1240 m 476 1143 q 485 1151 476 1143 q 493 1183 493 1160 q 476 1224 493 1207 q 436 1242 460 1242 q 394 1224 411 1242 q 378 1185 378 1207 q 395 1143 378 1160 q 436 1126 413 1126 q 476 1143 460 1126 z "},"Æ":{"ha":1235,"x_min":-8,"x_max":1169,"o":"m 1169 0 l 599 0 l 599 233 l 288 233 l 178 0 l -8 0 l 451 972 l 1163 972 l 1163 822 l 775 822 l 775 572 l 1135 572 l 1135 422 l 775 422 l 775 150 l 1169 150 l 1169 0 m 599 376 l 599 822 l 567 822 l 356 376 l 599 376 z "},"Ç":{"ha":1006,"x_min":57,"x_max":963,"o":"m 385 -287 l 407 -204 q 506 -222 446 -222 q 565 -206 542 -222 q 589 -165 589 -190 q 574 -135 589 -147 q 533 -121 560 -122 q 454 -124 499 -117 l 486 -17 q 181 135 304 0 q 57 490 57 269 q 98 708 57 610 q 207 867 139 806 q 360 961 275 928 q 539 994 446 994 q 823 902 715 994 q 946 675 931 810 l 778 675 q 692 806 761 765 q 532 847 622 847 q 327 755 411 847 q 243 493 243 663 q 327 222 243 315 q 539 128 411 128 q 710 176 636 128 q 794 328 783 225 l 963 328 q 847 92 953 188 q 583 -17 740 -4 l 571 -57 q 676 -90 635 -60 q 718 -171 718 -119 q 659 -274 718 -236 q 514 -311 600 -311 q 385 -287 444 -311 z "},"È":{"ha":794,"x_min":113,"x_max":729,"o":"m 729 0 l 113 0 l 113 972 l 722 972 l 722 822 l 289 822 l 289 572 l 694 572 l 694 422 l 289 422 l 289 150 l 729 150 l 729 0 m 528 1069 l 399 1069 l 229 1275 l 428 1275 l 528 1069 z "},"É":{"ha":794,"x_min":113,"x_max":729,"o":"m 729 0 l 113 0 l 113 972 l 722 972 l 722 822 l 289 822 l 289 572 l 694 572 l 694 422 l 289 422 l 289 150 l 729 150 l 729 0 m 454 1069 l 325 1069 l 425 1275 l 624 1275 l 454 1069 z "},"Ê":{"ha":794,"x_min":113,"x_max":729,"o":"m 729 0 l 113 0 l 113 972 l 722 972 l 722 822 l 289 822 l 289 572 l 694 572 l 694 422 l 289 422 l 289 150 l 729 150 l 729 0 m 647 1069 l 511 1069 l 421 1185 l 332 1069 l 196 1069 l 318 1275 l 526 1275 l 647 1069 z "},"Ë":{"ha":794,"x_min":113,"x_max":729,"o":"m 729 0 l 113 0 l 113 972 l 722 972 l 722 822 l 289 822 l 289 572 l 694 572 l 694 422 l 289 422 l 289 150 l 729 150 l 729 0 m 385 1069 l 225 1069 l 225 1213 l 385 1213 l 385 1069 m 621 1069 l 461 1069 l 461 1213 l 621 1213 l 621 1069 z "},"Ì":{"ha":401,"x_min":-10,"x_max":289,"o":"m 289 0 l 113 0 l 113 972 l 289 972 l 289 0 m 289 1069 l 160 1069 l -10 1275 l 188 1275 l 289 1069 z "},"Í":{"ha":401,"x_min":113,"x_max":414,"o":"m 289 0 l 113 0 l 113 972 l 289 972 l 289 0 m 244 1069 l 115 1069 l 215 1275 l 414 1275 l 244 1069 z "},"Î":{"ha":401,"x_min":-24,"x_max":428,"o":"m 289 0 l 113 0 l 113 972 l 289 972 l 289 0 m 428 1069 l 292 1069 l 201 1185 l 113 1069 l -24 1069 l 97 1275 l 306 1275 l 428 1069 z "},"Ï":{"ha":401,"x_min":4,"x_max":400,"o":"m 289 0 l 113 0 l 113 972 l 289 972 l 289 0 m 164 1069 l 4 1069 l 4 1213 l 164 1213 l 164 1069 m 400 1069 l 240 1069 l 240 1213 l 400 1213 l 400 1069 z "},"Ð":{"ha":989,"x_min":31,"x_max":931,"o":"m 340 0 l 115 0 l 115 417 l 31 417 l 31 560 l 115 560 l 115 972 l 357 972 q 693 913 574 972 q 830 803 775 872 q 908 655 885 733 q 931 486 931 576 q 899 299 931 383 q 800 146 867 215 q 616 38 733 76 q 340 0 499 0 m 286 151 l 351 151 q 749 489 749 151 q 351 821 749 821 l 286 821 l 286 560 l 507 560 l 507 417 l 286 417 l 286 151 z "},"Ñ":{"ha":1081,"x_min":113,"x_max":968,"o":"m 968 0 l 757 0 l 289 711 l 289 0 l 113 0 l 113 972 l 322 972 l 792 263 l 792 972 l 968 972 l 968 0 m 689 1240 l 785 1240 q 751 1120 782 1168 q 658 1072 721 1072 q 553 1102 615 1072 q 468 1132 492 1132 q 418 1071 421 1132 l 324 1071 q 356 1192 324 1143 q 460 1240 388 1240 q 554 1212 493 1240 q 638 1183 615 1183 q 689 1240 686 1183 z "},"Ò":{"ha":1104,"x_min":56,"x_max":1049,"o":"m 794 38 q 738 9 794 38 q 551 -19 682 -19 q 310 38 421 -19 q 127 214 199 96 q 56 488 56 332 q 203 857 56 719 q 551 994 350 994 q 901 857 754 994 q 1049 488 1049 719 q 977 214 1049 332 q 794 38 906 96 m 551 128 q 778 226 693 128 q 863 488 863 325 q 777 748 863 649 q 551 847 692 847 q 326 748 411 847 q 242 488 242 649 q 326 226 242 325 q 551 128 411 128 m 638 1069 l 508 1069 l 339 1275 l 538 1275 l 638 1069 z "},"Ó":{"ha":1104,"x_min":56,"x_max":1049,"o":"m 794 38 q 738 9 794 38 q 551 -19 682 -19 q 310 38 421 -19 q 127 214 199 96 q 56 488 56 332 q 203 857 56 719 q 551 994 350 994 q 901 857 754 994 q 1049 488 1049 719 q 977 214 1049 332 q 794 38 906 96 m 551 128 q 778 226 693 128 q 863 488 863 325 q 777 748 863 649 q 551 847 692 847 q 326 748 411 847 q 242 488 242 649 q 326 226 242 325 q 551 128 411 128 m 579 1069 l 450 1069 l 551 1275 l 749 1275 l 579 1069 z "},"Ô":{"ha":1104,"x_min":56,"x_max":1049,"o":"m 794 38 q 738 9 794 38 q 551 -19 682 -19 q 310 38 421 -19 q 127 214 199 96 q 56 488 56 332 q 203 857 56 719 q 551 994 350 994 q 901 857 754 994 q 1049 488 1049 719 q 977 214 1049 332 q 794 38 906 96 m 551 128 q 778 226 693 128 q 863 488 863 325 q 777 748 863 649 q 551 847 692 847 q 326 748 411 847 q 242 488 242 649 q 326 226 242 325 q 551 128 411 128 m 776 1069 l 640 1069 l 550 1185 l 461 1069 l 325 1069 l 447 1275 l 656 1275 l 776 1069 z "},"Õ":{"ha":1104,"x_min":56,"x_max":1049,"o":"m 794 38 q 738 9 794 38 q 551 -19 682 -19 q 310 38 421 -19 q 127 214 199 96 q 56 488 56 332 q 203 857 56 719 q 551 994 350 994 q 901 857 754 994 q 1049 488 1049 719 q 977 214 1049 332 q 794 38 906 96 m 551 128 q 778 226 693 128 q 863 488 863 325 q 777 748 863 649 q 551 847 692 847 q 326 748 411 847 q 242 488 242 649 q 326 226 242 325 q 551 128 411 128 m 686 1240 l 782 1240 q 749 1120 779 1168 q 656 1072 718 1072 q 551 1102 613 1072 q 465 1132 489 1132 q 415 1071 418 1132 l 321 1071 q 353 1192 321 1143 q 457 1240 385 1240 q 551 1212 490 1240 q 635 1183 613 1183 q 686 1240 683 1183 z "},"Ö":{"ha":1104,"x_min":56,"x_max":1049,"o":"m 794 38 q 738 9 794 38 q 551 -19 682 -19 q 310 38 421 -19 q 127 214 199 96 q 56 488 56 332 q 203 857 56 719 q 551 994 350 994 q 901 857 754 994 q 1049 488 1049 719 q 977 214 1049 332 q 794 38 906 96 m 551 128 q 778 226 693 128 q 863 488 863 325 q 777 748 863 649 q 551 847 692 847 q 326 748 411 847 q 242 488 242 649 q 326 226 242 325 q 551 128 411 128 m 513 1069 l 353 1069 l 353 1213 l 513 1213 l 513 1069 m 749 1069 l 589 1069 l 589 1213 l 749 1213 l 749 1069 z "},"×":{"ha":650,"x_min":74,"x_max":576,"o":"m 478 106 l 325 258 l 171 104 l 74 201 l 228 356 l 75 508 l 174 607 l 326 454 l 476 604 l 574 507 l 424 357 l 576 204 l 478 106 z "},"Ø":{"ha":1104,"x_min":56,"x_max":1049,"o":"m 188 -15 l 93 71 l 168 154 q 56 488 56 289 q 203 857 56 719 q 551 994 350 994 q 842 904 713 994 l 918 989 l 1011 906 l 935 821 q 1049 488 1049 685 q 977 214 1049 332 q 794 38 906 96 q 551 -19 682 -19 q 263 68 388 -19 l 188 -15 m 818 690 l 368 186 q 551 128 443 128 q 780 231 697 128 q 863 489 863 333 q 818 690 863 600 m 286 286 l 736 786 q 551 847 660 847 q 321 742 399 847 q 243 482 243 636 q 286 286 243 376 z "},"Ù":{"ha":971,"x_min":106,"x_max":867,"o":"m 690 372 l 690 972 l 867 972 l 867 371 q 810 115 867 197 q 486 -19 715 -19 q 164 115 258 -19 q 106 371 106 200 l 106 972 l 282 972 l 282 372 q 306 221 282 269 q 486 128 351 128 q 668 221 622 128 q 690 372 690 267 m 582 1069 l 453 1069 l 283 1275 l 481 1275 l 582 1069 z "},"Ú":{"ha":971,"x_min":106,"x_max":867,"o":"m 690 372 l 690 972 l 867 972 l 867 371 q 810 115 867 197 q 486 -19 715 -19 q 164 115 258 -19 q 106 371 106 200 l 106 972 l 282 972 l 282 372 q 306 221 282 269 q 486 128 351 128 q 668 221 622 128 q 690 372 690 267 m 536 1069 l 407 1069 l 508 1275 l 706 1275 l 536 1069 z "},"Û":{"ha":971,"x_min":106,"x_max":867,"o":"m 690 372 l 690 972 l 867 972 l 867 371 q 810 115 867 197 q 486 -19 715 -19 q 164 115 258 -19 q 106 371 106 200 l 106 972 l 282 972 l 282 372 q 306 221 282 269 q 486 128 351 128 q 668 221 622 128 q 690 372 690 267 m 715 1069 l 579 1069 l 489 1185 l 400 1069 l 264 1069 l 385 1275 l 593 1275 l 715 1069 z "},"Ü":{"ha":971,"x_min":106,"x_max":867,"o":"m 690 372 l 690 972 l 867 972 l 867 371 q 810 115 867 197 q 486 -19 715 -19 q 164 115 258 -19 q 106 371 106 200 l 106 972 l 282 972 l 282 372 q 306 221 282 269 q 486 128 351 128 q 668 221 622 128 q 690 372 690 267 m 451 1069 l 292 1069 l 292 1213 l 451 1213 l 451 1069 m 688 1069 l 528 1069 l 528 1213 l 688 1213 l 688 1069 z "},"Ý":{"ha":785,"x_min":-1,"x_max":785,"o":"m 481 0 l 304 0 l 304 356 l -1 972 l 192 972 l 392 558 l 593 972 l 785 972 l 481 356 l 481 0 m 428 1069 l 299 1069 l 400 1275 l 597 1275 l 428 1069 z "},"Þ":{"ha":792,"x_min":113,"x_max":756,"o":"m 283 0 l 113 0 l 113 972 l 283 972 l 283 799 l 393 799 q 672 720 588 799 q 756 493 756 642 q 670 263 756 343 q 389 182 585 182 l 283 182 l 283 0 m 283 332 l 390 332 q 533 372 490 332 q 576 492 576 411 q 533 609 576 571 q 390 647 489 647 l 283 647 l 283 332 z "},"ß":{"ha":749,"x_min":81,"x_max":704,"o":"m 364 -6 l 364 114 q 372 113 367 114 q 386 113 378 113 q 497 153 454 113 q 539 269 539 194 q 488 391 539 350 q 356 433 438 432 l 356 557 q 522 721 522 579 q 486 832 522 793 q 389 871 450 871 q 256 686 256 871 l 256 0 l 81 0 l 81 686 q 162 922 81 849 q 376 994 243 994 q 608 922 519 994 q 696 725 696 849 q 518 500 696 551 q 660 410 617 475 q 704 267 704 346 q 631 72 704 156 q 432 -11 557 -11 q 364 -6 392 -11 z "},"à":{"ha":693,"x_min":42,"x_max":617,"o":"m 468 722 l 339 722 l 169 928 l 367 928 l 468 722 m 410 132 q 426 145 410 132 q 442 200 442 158 q 410 265 442 242 q 331 289 379 289 q 249 263 278 289 q 219 194 219 236 q 247 130 219 154 q 324 106 274 106 q 410 132 378 106 m 617 0 l 442 0 l 442 64 q 260 -11 378 -11 q 98 47 154 -11 q 42 189 42 104 q 104 338 42 279 q 281 397 167 397 q 439 342 385 397 l 439 375 q 434 451 439 424 q 406 499 429 478 q 336 519 382 519 q 238 446 253 519 l 76 446 q 346 643 101 643 q 557 572 497 643 q 617 374 617 500 l 617 0 z "},"á":{"ha":693,"x_min":42,"x_max":617,"o":"m 346 722 l 217 722 l 318 928 l 515 928 l 346 722 m 410 132 q 426 145 410 132 q 442 200 442 158 q 410 265 442 242 q 331 289 379 289 q 249 263 278 289 q 219 194 219 236 q 247 130 219 154 q 324 106 274 106 q 410 132 378 106 m 617 0 l 442 0 l 442 64 q 260 -11 378 -11 q 98 47 154 -11 q 42 189 42 104 q 104 338 42 279 q 281 397 167 397 q 439 342 385 397 l 439 375 q 434 451 439 424 q 406 499 429 478 q 336 519 382 519 q 238 446 253 519 l 76 446 q 346 643 101 643 q 557 572 497 643 q 617 374 617 500 l 617 0 z "},"â":{"ha":693,"x_min":42,"x_max":617,"o":"m 572 722 l 436 722 l 346 838 l 257 722 l 121 722 l 242 928 l 450 928 l 572 722 m 410 132 q 426 145 410 132 q 442 200 442 158 q 410 265 442 242 q 331 289 379 289 q 249 263 278 289 q 219 194 219 236 q 247 130 219 154 q 324 106 274 106 q 410 132 378 106 m 617 0 l 442 0 l 442 64 q 260 -11 378 -11 q 98 47 154 -11 q 42 189 42 104 q 104 338 42 279 q 281 397 167 397 q 439 342 385 397 l 439 375 q 434 451 439 424 q 406 499 429 478 q 336 519 382 519 q 238 446 253 519 l 76 446 q 346 643 101 643 q 557 572 497 643 q 617 374 617 500 l 617 0 z "},"ã":{"ha":693,"x_min":42,"x_max":617,"o":"m 482 893 l 576 893 q 546 775 575 824 q 460 725 517 726 q 422 728 433 725 q 335 758 388 732 q 260 785 283 785 q 211 724 214 785 l 115 724 q 236 892 118 882 q 275 890 258 894 q 355 862 301 888 q 429 836 408 836 q 482 893 479 836 m 410 132 q 426 145 410 132 q 442 200 442 158 q 410 265 442 242 q 331 289 379 289 q 249 263 278 289 q 219 194 219 236 q 247 130 219 154 q 324 106 274 106 q 410 132 378 106 m 617 0 l 442 0 l 442 64 q 260 -11 378 -11 q 98 47 154 -11 q 42 189 42 104 q 104 338 42 279 q 281 397 167 397 q 439 342 385 397 l 439 375 q 434 451 439 424 q 406 499 429 478 q 336 519 382 519 q 268 501 290 519 q 238 446 246 483 l 76 446 q 346 643 101 643 q 557 572 497 643 q 617 374 617 500 l 617 0 z "},"ä":{"ha":693,"x_min":42,"x_max":617,"o":"m 308 722 l 149 722 l 149 865 l 308 865 l 308 722 m 544 722 l 385 722 l 385 865 l 544 865 l 544 722 m 410 132 q 426 145 410 132 q 442 200 442 158 q 410 265 442 242 q 331 289 379 289 q 249 263 278 289 q 219 194 219 236 q 247 130 219 154 q 324 106 274 106 q 410 132 378 106 m 617 0 l 442 0 l 442 64 q 260 -11 378 -11 q 98 47 154 -11 q 42 189 42 104 q 104 338 42 279 q 281 397 167 397 q 439 342 385 397 l 439 375 q 434 451 439 424 q 406 499 429 478 q 336 519 382 519 q 238 446 253 519 l 76 446 q 346 643 101 643 q 557 572 497 643 q 617 374 617 500 l 617 0 z "},"å":{"ha":693,"x_min":42,"x_max":617,"o":"m 481 850 q 441 755 481 794 q 346 715 401 715 q 251 755 290 715 q 213 850 213 794 q 251 947 213 907 q 346 986 290 986 q 442 947 403 986 q 481 850 481 907 m 388 810 q 396 818 388 810 q 404 850 404 826 q 388 891 404 874 q 347 908 371 908 q 306 891 322 908 q 289 851 289 874 q 306 810 289 826 q 347 793 324 793 q 388 810 371 793 m 410 132 q 426 145 410 132 q 442 200 442 158 q 410 265 442 242 q 331 289 379 289 q 249 263 278 289 q 219 194 219 236 q 247 130 219 154 q 324 106 274 106 q 410 132 378 106 m 617 0 l 442 0 l 442 64 q 260 -11 378 -11 q 98 47 154 -11 q 42 189 42 104 q 104 338 42 279 q 281 397 167 397 q 439 342 385 397 l 439 375 q 434 451 439 424 q 406 499 429 478 q 336 519 382 519 q 238 446 253 519 l 76 446 q 346 643 101 643 q 557 572 497 643 q 617 374 617 500 l 617 0 z "},"æ":{"ha":1121,"x_min":42,"x_max":1082,"o":"m 1082 282 l 617 282 q 660 160 619 203 q 774 118 701 118 q 904 206 882 118 l 1076 206 q 985 53 1063 117 q 774 -11 907 -11 q 517 88 611 -11 q 300 -11 432 -11 q 108 41 174 -11 q 42 188 42 93 q 104 339 42 279 q 281 399 167 399 q 439 343 385 399 l 439 375 q 434 451 439 424 q 406 499 429 478 q 336 519 382 519 q 268 501 290 519 q 238 446 246 483 l 76 446 q 344 643 101 643 q 550 565 483 643 q 771 643 631 643 q 1003 551 924 643 q 1082 282 1082 460 m 410 133 q 426 146 410 133 q 442 201 442 160 q 410 267 442 243 q 331 290 379 290 q 249 263 278 290 q 219 194 219 236 q 247 130 219 154 q 324 106 274 106 q 410 133 378 106 m 624 389 l 903 389 q 769 517 890 517 q 624 389 650 517 z "},"ç":{"ha":707,"x_min":43,"x_max":671,"o":"m 214 -285 l 238 -200 q 335 -218 271 -218 q 396 -203 372 -218 q 419 -162 419 -187 q 290 -96 419 -100 q 318 -6 296 -75 q 115 104 188 14 q 43 315 43 194 q 133 547 43 451 q 382 643 224 643 q 578 581 507 643 q 663 419 649 519 l 499 419 q 383 513 479 513 q 269 460 310 513 q 228 314 228 408 q 269 169 228 221 q 385 118 310 118 q 506 233 492 118 l 671 233 q 599 69 663 140 q 414 -10 536 -1 l 401 -54 q 506 -86 464 -57 q 547 -168 547 -115 q 488 -270 547 -233 q 344 -307 429 -307 q 214 -285 276 -307 z "},"è":{"ha":733,"x_min":44,"x_max":694,"o":"m 463 722 l 333 722 l 164 928 l 363 928 l 463 722 m 694 282 l 229 282 q 273 160 232 203 q 386 118 314 118 q 517 206 494 118 l 689 206 q 597 53 675 117 q 386 -11 519 -11 q 133 84 222 -11 q 44 317 44 179 q 133 549 44 454 q 383 643 221 643 q 615 551 536 643 q 694 282 694 460 m 236 389 l 515 389 q 382 517 503 517 q 236 389 263 517 z "},"é":{"ha":733,"x_min":44,"x_max":694,"o":"m 399 722 l 269 722 l 369 928 l 568 928 l 399 722 m 694 282 l 229 282 q 273 160 232 203 q 386 118 314 118 q 517 206 494 118 l 689 206 q 597 53 675 117 q 386 -11 519 -11 q 133 84 222 -11 q 44 317 44 179 q 133 549 44 454 q 383 643 221 643 q 615 551 536 643 q 694 282 694 460 m 236 389 l 515 389 q 382 517 503 517 q 236 389 263 517 z "},"ê":{"ha":733,"x_min":44,"x_max":694,"o":"m 594 722 l 458 722 l 368 838 l 279 722 l 143 722 l 264 928 l 472 928 l 594 722 m 694 282 l 229 282 q 273 160 232 203 q 386 118 314 118 q 517 206 494 118 l 689 206 q 597 53 675 117 q 386 -11 519 -11 q 133 84 222 -11 q 44 317 44 179 q 133 549 44 454 q 383 643 221 643 q 615 551 536 643 q 694 282 694 460 m 236 389 l 515 389 q 382 517 503 517 q 236 389 263 517 z "},"ë":{"ha":733,"x_min":44,"x_max":694,"o":"m 331 722 l 171 722 l 171 865 l 331 865 l 331 722 m 567 722 l 407 722 l 407 865 l 567 865 l 567 722 m 694 282 l 229 282 q 273 160 232 203 q 386 118 314 118 q 517 206 494 118 l 689 206 q 597 53 675 117 q 386 -11 519 -11 q 133 84 222 -11 q 44 317 44 179 q 133 549 44 454 q 383 643 221 643 q 615 551 536 643 q 694 282 694 460 m 236 389 l 515 389 q 382 517 503 517 q 236 389 263 517 z "},"ì":{"ha":336,"x_min":-43,"x_max":256,"o":"m 256 0 l 81 0 l 81 625 l 256 625 l 256 0 m 256 722 l 126 722 l -43 928 l 156 928 l 256 722 z "},"í":{"ha":336,"x_min":81,"x_max":381,"o":"m 256 0 l 81 0 l 81 625 l 256 625 l 256 0 m 211 722 l 82 722 l 182 928 l 381 928 l 211 722 z "},"î":{"ha":336,"x_min":-57,"x_max":394,"o":"m 256 0 l 81 0 l 81 625 l 256 625 l 256 0 m 394 722 l 258 722 l 168 838 l 79 722 l -57 722 l 64 928 l 272 928 l 394 722 z "},"ï":{"ha":336,"x_min":-29,"x_max":367,"o":"m 256 0 l 81 0 l 81 625 l 256 625 l 256 0 m 131 722 l -29 722 l -29 865 l 131 865 l 131 722 m 367 722 l 207 722 l 207 865 l 367 865 l 367 722 z "},"ð":{"ha":807,"x_min":43,"x_max":750,"o":"m 724 915 l 640 850 q 750 458 750 700 q 731 277 750 360 q 670 128 711 194 q 558 26 629 63 q 392 -11 488 -11 q 137 85 231 -11 q 43 321 43 182 q 135 550 43 457 q 383 643 226 643 q 564 590 494 643 q 497 750 554 685 l 435 703 l 383 765 l 442 811 q 360 849 404 849 q 247 813 306 849 l 181 943 q 363 994 265 994 q 575 918 483 994 l 663 986 l 724 915 m 576 433 q 393 508 489 508 q 268 457 308 508 q 228 324 228 406 q 274 178 228 233 q 392 122 319 122 q 528 210 482 122 q 576 433 574 297 z "},"ñ":{"ha":753,"x_min":81,"x_max":676,"o":"m 676 0 l 500 0 l 500 367 q 479 465 500 433 q 404 496 458 496 q 295 449 335 496 q 256 325 256 401 l 256 0 l 81 0 l 81 625 l 256 625 l 256 535 q 464 643 335 643 q 676 381 676 643 l 676 0 m 510 893 l 606 893 q 572 773 603 821 q 479 725 542 725 q 374 755 436 725 q 289 785 313 785 q 239 724 242 785 l 144 724 q 176 844 144 796 q 281 893 208 893 q 375 865 314 893 q 458 836 436 836 q 510 893 507 836 z "},"ò":{"ha":779,"x_min":43,"x_max":736,"o":"m 479 722 l 350 722 l 181 928 l 378 928 l 479 722 m 644 547 q 690 498 644 547 q 736 315 736 450 q 644 85 736 181 q 389 -11 553 -11 q 134 85 225 -11 q 43 315 43 181 q 135 547 43 450 q 389 643 226 643 q 644 547 553 643 m 269 174 q 290 148 269 174 q 389 122 311 122 q 508 174 467 122 q 550 314 550 226 q 508 456 550 403 q 389 510 467 510 q 269 456 311 510 q 228 314 228 403 q 269 174 228 226 z "},"ó":{"ha":779,"x_min":43,"x_max":736,"o":"m 418 722 l 289 722 l 390 928 l 588 928 l 418 722 m 644 547 q 690 498 644 547 q 736 315 736 450 q 644 85 736 181 q 389 -11 553 -11 q 134 85 225 -11 q 43 315 43 181 q 135 547 43 450 q 389 643 226 643 q 644 547 553 643 m 269 174 q 290 148 269 174 q 389 122 311 122 q 508 174 467 122 q 550 314 550 226 q 508 456 550 403 q 389 510 467 510 q 269 456 311 510 q 228 314 228 403 q 269 174 228 226 z "},"ô":{"ha":779,"x_min":43,"x_max":736,"o":"m 614 722 l 478 722 l 388 838 l 299 722 l 163 722 l 285 928 l 493 928 l 614 722 m 644 547 q 690 498 644 547 q 736 315 736 450 q 644 85 736 181 q 389 -11 553 -11 q 134 85 225 -11 q 43 315 43 181 q 135 547 43 450 q 389 643 226 643 q 644 547 553 643 m 269 174 q 290 148 269 174 q 389 122 311 122 q 508 174 467 122 q 550 314 550 226 q 508 456 550 403 q 389 510 467 510 q 269 456 311 510 q 228 314 228 403 q 269 174 228 226 z "},"õ":{"ha":779,"x_min":43,"x_max":736,"o":"m 644 547 q 690 498 644 547 q 736 315 736 450 q 644 85 736 181 q 389 -11 553 -11 q 134 85 225 -11 q 43 315 43 181 q 135 547 43 450 q 389 643 226 643 q 644 547 553 643 m 269 174 q 290 148 269 174 q 389 122 311 122 q 508 174 467 122 q 550 314 550 226 q 508 456 550 403 q 389 510 467 510 q 269 456 311 510 q 228 314 228 403 q 269 174 228 226 m 524 893 l 619 893 q 586 773 617 821 q 493 725 556 725 q 388 755 450 725 q 303 785 326 785 q 253 724 256 785 l 158 724 q 190 844 158 796 q 294 893 222 893 q 389 865 328 893 q 472 836 450 836 q 524 893 521 836 z "},"ö":{"ha":779,"x_min":43,"x_max":736,"o":"m 350 722 l 190 722 l 190 865 l 350 865 l 350 722 m 586 722 l 426 722 l 426 865 l 586 865 l 586 722 m 644 547 q 690 498 644 547 q 736 315 736 450 q 644 85 736 181 q 389 -11 553 -11 q 134 85 225 -11 q 43 315 43 181 q 135 547 43 450 q 389 643 226 643 q 644 547 553 643 m 269 174 q 290 148 269 174 q 389 122 311 122 q 508 174 467 122 q 550 314 550 226 q 508 456 550 403 q 389 510 467 510 q 269 456 311 510 q 228 314 228 403 q 269 174 228 226 z "},"÷":{"ha":725,"x_min":78,"x_max":647,"o":"m 453 525 l 271 525 l 271 683 l 453 683 l 453 525 m 453 31 l 271 31 l 271 189 l 453 189 l 453 31 m 647 288 l 78 288 l 78 426 l 647 426 l 647 288 z "},"ø":{"ha":779,"x_min":43,"x_max":736,"o":"m 158 -61 l 78 1 l 140 82 q 43 317 43 175 q 135 547 43 451 q 389 643 226 643 q 551 611 481 643 l 619 700 l 700 642 l 635 556 q 736 315 736 458 q 644 85 736 181 q 389 -11 553 -11 q 224 24 296 -11 l 158 -61 m 535 424 l 308 136 q 389 115 344 115 q 512 171 467 115 q 557 315 557 226 q 535 424 557 378 m 242 214 l 465 499 q 389 517 435 517 q 266 460 311 517 q 221 315 221 403 q 242 214 221 260 z "},"ù":{"ha":753,"x_min":76,"x_max":672,"o":"m 467 722 l 338 722 l 168 928 l 367 928 l 467 722 m 672 0 l 496 0 l 496 97 q 292 -11 422 -11 q 125 68 183 -11 q 76 250 76 135 l 76 625 l 251 625 l 251 265 q 272 167 251 199 q 349 136 293 136 q 457 183 418 136 q 496 310 496 229 l 496 625 l 672 625 l 672 0 z "},"ú":{"ha":753,"x_min":76,"x_max":672,"o":"m 418 722 l 289 722 l 389 928 l 588 928 l 418 722 m 672 0 l 496 0 l 496 97 q 292 -11 422 -11 q 125 68 183 -11 q 76 250 76 135 l 76 625 l 251 625 l 251 265 q 272 167 251 199 q 349 136 293 136 q 457 183 418 136 q 496 310 496 229 l 496 625 l 672 625 l 672 0 z "},"û":{"ha":753,"x_min":76,"x_max":672,"o":"m 600 722 l 464 722 l 374 838 l 285 722 l 149 722 l 271 928 l 479 928 l 600 722 m 672 0 l 496 0 l 496 97 q 292 -11 422 -11 q 125 68 183 -11 q 76 250 76 135 l 76 625 l 251 625 l 251 265 q 272 167 251 199 q 349 136 293 136 q 457 183 418 136 q 496 310 496 229 l 496 625 l 672 625 l 672 0 z "},"ü":{"ha":753,"x_min":76,"x_max":672,"o":"m 335 722 l 175 722 l 175 865 l 335 865 l 335 722 m 571 722 l 411 722 l 411 865 l 571 865 l 571 722 m 672 0 l 496 0 l 496 97 q 292 -11 422 -11 q 125 68 183 -11 q 76 250 76 135 l 76 625 l 251 625 l 251 265 q 272 167 251 199 q 349 136 293 136 q 457 183 418 136 q 496 310 496 229 l 496 625 l 672 625 l 672 0 z "},"ý":{"ha":671,"x_min":7,"x_max":663,"o":"m 94 -251 l 94 -117 q 161 -131 126 -131 q 231 -105 206 -131 q 275 -15 256 -79 l 290 35 l 222 35 l 7 625 l 193 625 l 339 189 l 476 625 l 663 625 l 443 -36 q 344 -210 404 -153 q 186 -268 283 -268 q 94 -251 131 -268 m 386 722 l 257 722 l 357 928 l 556 928 l 386 722 z "},"þ":{"ha":775,"x_min":81,"x_max":731,"o":"m 256 -268 l 81 -268 l 81 994 l 256 994 l 256 572 q 438 643 324 643 q 653 548 575 643 q 731 317 731 453 q 649 83 731 178 q 433 -11 567 -11 q 256 56 322 -11 l 256 -268 m 394 122 q 506 174 464 122 q 547 317 547 226 q 508 458 547 403 q 397 514 469 514 q 286 461 326 514 q 246 315 246 408 q 288 170 246 218 q 394 122 331 122 z "},"ÿ":{"ha":671,"x_min":7,"x_max":663,"o":"m 94 -251 l 94 -117 q 161 -131 126 -131 q 231 -105 206 -131 q 275 -15 256 -79 l 290 35 l 222 35 l 7 625 l 193 625 l 339 189 l 476 625 l 663 625 l 443 -36 q 344 -210 404 -153 q 186 -268 283 -268 q 94 -251 131 -268 m 297 722 l 138 722 l 138 865 l 297 865 l 297 722 m 533 722 l 374 722 l 374 865 l 533 865 l 533 722 z "},"Ā":{"ha":872,"x_min":3,"x_max":869,"o":"m 869 0 l 690 0 l 615 233 l 256 233 l 181 0 l 3 0 l 333 978 l 539 978 l 869 0 m 569 376 l 436 789 l 303 376 l 569 376 m 654 1097 l 217 1097 l 217 1221 l 654 1221 l 654 1097 z "},"ā":{"ha":693,"x_min":42,"x_max":617,"o":"m 561 750 l 124 750 l 124 874 l 561 874 l 561 750 m 410 132 q 426 145 410 132 q 442 200 442 158 q 410 265 442 242 q 331 289 379 289 q 249 263 278 289 q 219 194 219 236 q 247 130 219 154 q 324 106 274 106 q 410 132 378 106 m 617 0 l 442 0 l 442 64 q 260 -11 378 -11 q 98 47 154 -11 q 42 189 42 104 q 104 338 42 279 q 281 397 167 397 q 439 342 385 397 l 439 375 q 434 451 439 424 q 406 499 429 478 q 336 519 382 519 q 238 446 253 519 l 76 446 q 346 643 101 643 q 557 572 497 643 q 617 374 617 500 l 617 0 z "},"Ă":{"ha":872,"x_min":3,"x_max":869,"o":"m 869 0 l 690 0 l 615 233 l 256 233 l 181 0 l 3 0 l 333 978 l 539 978 l 869 0 m 569 376 l 436 789 l 303 376 l 569 376 m 546 1263 l 644 1263 q 577 1120 635 1172 q 436 1068 519 1068 q 294 1119 351 1068 q 226 1263 236 1171 l 325 1263 q 433 1168 340 1168 q 546 1263 531 1168 z "},"ă":{"ha":693,"x_min":42,"x_max":617,"o":"m 457 915 l 556 915 q 488 773 546 825 q 346 721 429 721 q 204 772 263 721 q 136 915 146 824 l 235 915 q 344 821 253 821 q 457 915 442 821 m 410 132 q 426 145 410 132 q 442 200 442 158 q 410 265 442 242 q 331 289 379 289 q 249 263 278 289 q 219 194 219 236 q 247 130 219 154 q 324 106 274 106 q 410 132 378 106 m 617 0 l 442 0 l 442 64 q 260 -11 378 -11 q 98 47 154 -11 q 42 189 42 104 q 104 338 42 279 q 281 397 167 397 q 439 342 385 397 l 439 375 q 434 451 439 424 q 406 499 429 478 q 336 519 382 519 q 238 446 253 519 l 76 446 q 346 643 101 643 q 557 572 497 643 q 617 374 617 500 l 617 0 z "},"Ą":{"ha":871,"x_min":3,"x_max":933,"o":"m 933 -212 l 886 -306 q 847 -310 867 -310 q 685 -262 744 -310 q 625 -143 625 -214 q 690 0 625 -65 l 615 233 l 256 233 l 181 0 l 3 0 l 333 978 l 539 978 l 869 -1 q 775 -45 804 -10 q 746 -125 746 -81 q 850 -215 746 -206 q 933 -212 888 -219 m 569 376 l 436 789 l 303 376 l 569 376 z "},"ą":{"ha":692,"x_min":42,"x_max":685,"o":"m 685 -212 l 638 -306 q 599 -310 619 -310 q 436 -262 496 -310 q 376 -143 376 -214 q 442 0 376 -65 l 442 64 q 260 -11 378 -11 q 98 47 154 -11 q 42 189 42 104 q 104 338 42 279 q 281 397 167 397 q 439 342 385 397 l 439 375 q 434 451 439 424 q 406 499 429 478 q 336 519 382 519 q 268 501 290 519 q 238 446 246 483 l 76 446 q 346 643 101 643 q 557 572 497 643 q 617 374 617 500 l 617 -7 q 526 -47 554 -12 q 497 -125 497 -81 q 611 -217 497 -210 q 685 -212 647 -219 m 410 132 q 426 145 410 132 q 442 200 442 158 q 410 265 442 242 q 331 289 379 289 q 249 263 278 289 q 219 194 219 236 q 247 130 219 154 q 324 106 274 106 q 410 132 378 106 z "},"Ć":{"ha":1006,"x_min":57,"x_max":963,"o":"m 546 1069 l 417 1069 l 518 1275 l 715 1275 l 546 1069 m 794 328 l 963 328 q 832 78 953 176 q 536 -19 711 -19 q 197 118 338 -19 q 57 490 57 256 q 98 708 57 610 q 207 867 139 806 q 360 961 275 928 q 539 994 446 994 q 823 902 715 994 q 946 675 931 810 l 778 675 q 692 806 761 765 q 532 847 622 847 q 327 755 411 847 q 243 493 243 663 q 327 222 243 315 q 539 128 411 128 q 710 176 636 128 q 794 328 783 225 z "},"ć":{"ha":710,"x_min":44,"x_max":672,"o":"m 379 722 l 250 722 l 350 928 l 549 928 l 379 722 m 507 233 l 672 233 q 593 62 664 135 q 383 -11 522 -11 q 134 84 224 -11 q 44 315 44 179 q 135 547 44 451 q 383 643 225 643 q 579 581 508 643 q 664 419 650 519 l 500 419 q 385 513 481 513 q 270 460 311 513 q 229 314 229 408 q 270 169 229 221 q 386 118 311 118 q 507 233 493 118 z "},"Ĉ":{"ha":1006,"x_min":57,"x_max":963,"o":"m 735 1069 l 599 1069 l 508 1185 l 419 1069 l 283 1069 l 406 1275 l 614 1275 l 735 1069 m 794 328 l 963 328 q 832 78 953 176 q 536 -19 711 -19 q 197 118 338 -19 q 57 490 57 256 q 98 708 57 610 q 207 867 139 806 q 360 961 275 928 q 539 994 446 994 q 823 902 715 994 q 946 675 931 810 l 778 675 q 692 806 761 765 q 532 847 622 847 q 327 755 411 847 q 243 493 243 663 q 327 222 243 315 q 539 128 411 128 q 710 176 636 128 q 794 328 783 225 z "},"ĉ":{"ha":710,"x_min":44,"x_max":672,"o":"m 586 722 l 450 722 l 360 838 l 271 722 l 135 722 l 256 928 l 464 928 l 586 722 m 507 233 l 672 233 q 593 62 664 135 q 383 -11 522 -11 q 134 84 224 -11 q 44 315 44 179 q 135 547 44 451 q 383 643 225 643 q 579 581 508 643 q 664 419 650 519 l 500 419 q 385 513 481 513 q 270 460 311 513 q 229 314 229 408 q 270 169 229 221 q 386 118 311 118 q 507 233 493 118 z "},"Ċ":{"ha":1006,"x_min":57,"x_max":963,"o":"m 597 1069 l 435 1069 l 435 1214 l 597 1214 l 597 1069 m 794 328 l 963 328 q 832 78 953 176 q 536 -19 711 -19 q 197 118 338 -19 q 57 490 57 256 q 98 708 57 610 q 207 867 139 806 q 360 961 275 928 q 539 994 446 994 q 823 902 715 994 q 946 675 931 810 l 778 675 q 692 806 761 765 q 532 847 622 847 q 327 755 411 847 q 243 493 243 663 q 327 222 243 315 q 539 128 411 128 q 710 176 636 128 q 794 328 783 225 z "},"ċ":{"ha":710,"x_min":44,"x_max":672,"o":"m 442 722 l 279 722 l 279 867 l 442 867 l 442 722 m 507 233 l 672 233 q 593 62 664 135 q 383 -11 522 -11 q 134 84 224 -11 q 44 315 44 179 q 135 547 44 451 q 383 643 225 643 q 579 581 508 643 q 664 419 650 519 l 500 419 q 385 513 481 513 q 270 460 311 513 q 229 314 229 408 q 270 169 229 221 q 386 118 311 118 q 507 233 493 118 z "},"Č":{"ha":1006,"x_min":57,"x_max":963,"o":"m 626 1069 l 418 1069 l 297 1275 l 433 1275 l 522 1158 l 613 1275 l 749 1275 l 626 1069 m 794 328 l 963 328 q 832 78 953 176 q 536 -19 711 -19 q 197 118 338 -19 q 57 490 57 256 q 98 708 57 610 q 207 867 139 806 q 360 961 275 928 q 539 994 446 994 q 823 902 715 994 q 946 675 931 810 l 778 675 q 692 806 761 765 q 532 847 622 847 q 327 755 411 847 q 243 493 243 663 q 327 222 243 315 q 539 128 411 128 q 710 176 636 128 q 794 328 783 225 z "},"č":{"ha":710,"x_min":44,"x_max":672,"o":"m 461 722 l 253 722 l 132 928 l 268 928 l 357 811 l 447 928 l 583 928 l 461 722 m 507 233 l 672 233 q 593 62 664 135 q 383 -11 522 -11 q 134 84 224 -11 q 44 315 44 179 q 135 547 44 451 q 383 643 225 643 q 579 581 508 643 q 664 419 650 519 l 500 419 q 385 513 481 513 q 270 460 311 513 q 229 314 229 408 q 270 169 229 221 q 386 118 311 118 q 507 233 493 118 z "},"Ď":{"ha":988,"x_min":113,"x_max":928,"o":"m 338 0 l 113 0 l 113 972 l 354 972 q 718 896 589 972 q 876 724 825 832 q 928 486 928 617 q 896 299 928 383 q 797 146 864 215 q 613 38 731 76 q 338 0 496 0 m 283 151 l 349 151 q 746 489 746 151 q 349 821 746 821 l 283 821 l 283 151 m 556 1069 l 347 1069 l 225 1275 l 361 1275 l 450 1158 l 540 1275 l 676 1275 l 556 1069 z "},"ď":{"ha":828,"x_min":46,"x_max":978,"o":"m 696 0 l 521 0 l 521 63 q 335 -11 450 -11 q 122 83 199 -11 q 46 315 46 178 q 127 550 46 457 q 342 643 208 643 q 521 576 450 643 l 521 994 l 696 994 l 696 0 m 379 117 q 491 171 451 117 q 531 317 531 225 q 488 461 531 413 q 382 510 446 510 q 272 457 314 510 q 229 314 229 404 q 269 172 229 228 q 379 117 308 117 m 896 703 l 803 703 l 803 972 l 978 972 l 896 703 z "},"Đ":{"ha":989,"x_min":31,"x_max":931,"o":"m 340 0 l 115 0 l 115 417 l 31 417 l 31 560 l 115 560 l 115 972 l 357 972 q 693 913 574 972 q 830 803 775 872 q 908 655 885 733 q 931 486 931 576 q 899 299 931 383 q 800 146 867 215 q 616 38 733 76 q 340 0 499 0 m 286 151 l 351 151 q 749 489 749 151 q 351 821 749 821 l 286 821 l 286 560 l 507 560 l 507 417 l 286 417 l 286 151 z "},"đ":{"ha":776,"x_min":46,"x_max":768,"o":"m 696 0 l 521 0 l 521 63 q 335 -11 450 -11 q 122 83 199 -11 q 46 315 46 178 q 127 550 46 457 q 342 643 208 643 q 521 576 450 643 l 521 761 l 307 761 l 307 886 l 521 886 l 521 994 l 696 994 l 696 886 l 768 886 l 768 761 l 696 761 l 696 0 m 379 117 q 491 171 451 117 q 531 317 531 225 q 488 461 531 413 q 382 510 446 510 q 272 457 314 510 q 229 314 229 404 q 269 172 229 228 q 379 117 308 117 z "},"Ē":{"ha":794,"x_min":113,"x_max":729,"o":"m 729 0 l 113 0 l 113 972 l 722 972 l 722 822 l 289 822 l 289 572 l 694 572 l 694 422 l 289 422 l 289 150 l 729 150 l 729 0 m 646 1097 l 208 1097 l 208 1221 l 646 1221 l 646 1097 z "},"ē":{"ha":733,"x_min":44,"x_max":694,"o":"m 588 750 l 150 750 l 150 874 l 588 874 l 588 750 m 694 282 l 229 282 q 273 160 232 203 q 386 118 314 118 q 517 206 494 118 l 689 206 q 597 53 675 117 q 386 -11 519 -11 q 133 84 222 -11 q 44 317 44 179 q 133 549 44 454 q 383 643 221 643 q 615 551 536 643 q 694 282 694 460 m 236 389 l 515 389 q 382 517 503 517 q 236 389 263 517 z "},"Ĕ":{"ha":794,"x_min":113,"x_max":729,"o":"m 729 0 l 113 0 l 113 972 l 722 972 l 722 822 l 289 822 l 289 572 l 694 572 l 694 422 l 289 422 l 289 150 l 729 150 l 729 0 m 540 1263 l 639 1263 q 572 1120 629 1172 q 431 1068 514 1068 q 288 1119 346 1068 q 221 1263 231 1171 l 319 1263 q 428 1168 335 1168 q 540 1263 525 1168 z "},"ĕ":{"ha":733,"x_min":44,"x_max":694,"o":"m 479 915 l 578 915 q 510 773 568 825 q 369 721 453 721 q 227 772 285 721 q 160 915 169 824 l 258 915 q 367 821 274 821 q 479 915 464 821 m 694 282 l 229 282 q 273 160 232 203 q 386 118 314 118 q 517 206 494 118 l 689 206 q 597 53 675 117 q 386 -11 519 -11 q 133 84 222 -11 q 44 317 44 179 q 133 549 44 454 q 383 643 221 643 q 615 551 536 643 q 694 282 694 460 m 236 389 l 515 389 q 382 517 503 517 q 236 389 263 517 z "},"Ė":{"ha":794,"x_min":113,"x_max":729,"o":"m 729 0 l 113 0 l 113 972 l 722 972 l 722 822 l 289 822 l 289 572 l 694 572 l 694 422 l 289 422 l 289 150 l 729 150 l 729 0 m 514 1069 l 351 1069 l 351 1214 l 514 1214 l 514 1069 z "},"ė":{"ha":733,"x_min":44,"x_max":694,"o":"m 450 722 l 288 722 l 288 867 l 450 867 l 450 722 m 694 282 l 229 282 q 273 160 232 203 q 386 118 314 118 q 517 206 494 118 l 689 206 q 597 53 675 117 q 386 -11 519 -11 q 133 84 222 -11 q 44 317 44 179 q 133 549 44 454 q 383 643 221 643 q 615 551 536 643 q 694 282 694 460 m 236 389 l 515 389 q 382 517 503 517 q 236 389 263 517 z "},"Ę":{"ha":794,"x_min":113,"x_max":729,"o":"m 689 -212 l 642 -306 q 603 -310 622 -310 q 440 -262 500 -310 q 381 -143 381 -214 q 446 0 381 -65 l 113 0 l 113 972 l 722 972 l 722 822 l 289 822 l 289 572 l 694 572 l 694 422 l 289 422 l 289 150 l 729 150 l 729 0 l 564 0 q 501 -125 501 -62 q 606 -215 501 -206 q 689 -212 643 -219 z "},"ę":{"ha":735,"x_min":44,"x_max":694,"o":"m 674 -181 l 626 -274 q 589 -278 610 -278 q 426 -230 486 -278 q 367 -111 367 -182 q 397 -10 367 -58 q 333 -6 354 -10 q 119 99 194 7 q 44 317 44 192 q 133 549 44 454 q 383 643 221 643 q 615 551 536 643 q 694 282 694 460 l 229 282 q 273 160 232 203 q 386 118 314 118 q 517 206 494 118 l 689 206 q 652 119 682 163 q 592 49 622 76 q 514 -17 563 22 q 486 -93 486 -54 q 574 -178 486 -165 q 674 -181 615 -187 m 236 389 l 515 389 q 382 517 503 517 q 236 389 263 517 z "},"Ě":{"ha":794,"x_min":113,"x_max":729,"o":"m 729 0 l 113 0 l 113 972 l 722 972 l 722 822 l 289 822 l 289 572 l 694 572 l 694 422 l 289 422 l 289 150 l 729 150 l 729 0 m 533 1069 l 325 1069 l 203 1275 l 339 1275 l 428 1158 l 518 1275 l 654 1275 l 533 1069 z "},"ě":{"ha":733,"x_min":44,"x_max":694,"o":"m 472 722 l 264 722 l 143 928 l 279 928 l 368 811 l 458 928 l 594 928 l 472 722 m 694 282 l 229 282 q 273 160 232 203 q 386 118 314 118 q 517 206 494 118 l 689 206 q 597 53 675 117 q 386 -11 519 -11 q 133 84 222 -11 q 44 317 44 179 q 133 549 44 454 q 383 643 221 643 q 615 551 536 643 q 694 282 694 460 m 236 389 l 515 389 q 382 517 503 517 q 236 389 263 517 z "},"Ĝ":{"ha":1019,"x_min":57,"x_max":974,"o":"m 743 1069 l 607 1069 l 517 1185 l 428 1069 l 292 1069 l 413 1275 l 621 1275 l 743 1069 m 792 335 l 550 335 l 550 476 l 974 476 q 968 382 974 438 q 842 90 950 199 q 547 -19 733 -19 q 196 119 335 -19 q 57 490 57 257 q 98 709 57 611 q 208 868 139 807 q 363 962 276 929 q 543 994 449 994 q 826 897 717 994 q 946 676 935 799 l 776 676 q 692 803 761 758 q 536 847 624 847 q 328 758 414 847 q 243 490 243 668 q 326 223 243 318 q 542 128 408 128 q 709 178 639 128 q 792 335 779 229 z "},"ĝ":{"ha":775,"x_min":44,"x_max":694,"o":"m 519 -8 l 519 65 q 338 -11 451 -11 q 122 83 199 -11 q 44 314 44 178 q 127 549 44 456 q 340 643 210 643 q 519 572 449 643 l 519 625 l 694 625 l 694 -7 q 617 -222 694 -139 q 374 -304 539 -304 q 164 -247 243 -304 q 85 -71 85 -190 l 247 -71 q 275 -148 247 -119 q 376 -176 303 -176 q 488 -138 456 -176 q 519 -8 519 -100 m 379 117 q 490 169 450 117 q 529 315 529 222 q 488 462 529 414 q 382 510 447 510 q 270 458 313 510 q 228 315 228 406 q 267 173 228 229 q 379 117 307 117 m 600 722 l 464 722 l 374 838 l 285 722 l 149 722 l 271 928 l 479 928 l 600 722 z "},"Ğ":{"ha":1019,"x_min":57,"x_max":974,"o":"m 628 1263 l 726 1263 q 658 1120 717 1172 q 517 1068 600 1068 q 375 1119 433 1068 q 307 1263 317 1171 l 406 1263 q 515 1168 424 1168 q 628 1263 613 1168 m 792 335 l 550 335 l 550 476 l 974 476 q 968 382 974 438 q 842 90 950 199 q 547 -19 733 -19 q 196 119 335 -19 q 57 490 57 257 q 98 709 57 611 q 208 868 139 807 q 363 962 276 929 q 543 994 449 994 q 826 897 717 994 q 946 676 935 799 l 776 676 q 692 803 761 758 q 536 847 624 847 q 328 758 414 847 q 243 490 243 668 q 326 223 243 318 q 542 128 408 128 q 709 178 639 128 q 792 335 779 229 z "},"ğ":{"ha":775,"x_min":44,"x_max":694,"o":"m 519 -8 l 519 65 q 338 -11 451 -11 q 122 83 199 -11 q 44 314 44 178 q 127 549 44 456 q 340 643 210 643 q 519 572 449 643 l 519 625 l 694 625 l 694 -7 q 617 -222 694 -139 q 374 -304 539 -304 q 164 -247 243 -304 q 85 -71 85 -190 l 247 -71 q 275 -148 247 -119 q 376 -176 303 -176 q 488 -138 456 -176 q 519 -8 519 -100 m 379 117 q 490 169 450 117 q 529 315 529 222 q 488 462 529 414 q 382 510 447 510 q 270 458 313 510 q 228 315 228 406 q 267 173 228 229 q 379 117 307 117 m 489 915 l 588 915 q 520 773 578 825 q 379 721 463 721 q 237 772 294 721 q 169 915 179 824 l 268 915 q 376 821 283 821 q 489 915 474 821 z "},"Ġ":{"ha":1019,"x_min":57,"x_max":974,"o":"m 599 1069 l 436 1069 l 436 1214 l 599 1214 l 599 1069 m 792 335 l 550 335 l 550 476 l 974 476 q 968 382 974 438 q 842 90 950 199 q 547 -19 733 -19 q 196 119 335 -19 q 57 490 57 257 q 98 709 57 611 q 208 868 139 807 q 363 962 276 929 q 543 994 449 994 q 826 897 717 994 q 946 676 935 799 l 776 676 q 692 803 761 758 q 536 847 624 847 q 328 758 414 847 q 243 490 243 668 q 326 223 243 318 q 542 128 408 128 q 709 178 639 128 q 792 335 779 229 z "},"ġ":{"ha":775,"x_min":44,"x_max":694,"o":"m 519 -8 l 519 65 q 338 -11 451 -11 q 122 83 199 -11 q 44 314 44 178 q 127 549 44 456 q 340 643 210 643 q 519 572 449 643 l 519 625 l 694 625 l 694 -7 q 617 -222 694 -139 q 374 -304 539 -304 q 164 -247 243 -304 q 85 -71 85 -190 l 247 -71 q 275 -148 247 -119 q 376 -176 303 -176 q 488 -138 456 -176 q 519 -8 519 -100 m 379 117 q 490 169 450 117 q 529 315 529 222 q 488 462 529 414 q 382 510 447 510 q 270 458 313 510 q 228 315 228 406 q 267 173 228 229 q 379 117 307 117 m 454 722 l 292 722 l 292 867 l 454 867 l 454 722 z "},"Ģ":{"ha":1019,"x_min":57,"x_max":974,"o":"m 556 -339 l 457 -339 l 457 -85 l 619 -85 l 556 -339 m 792 335 l 550 335 l 550 476 l 974 476 q 968 382 974 438 q 842 90 950 199 q 547 -19 733 -19 q 196 119 335 -19 q 57 490 57 257 q 98 709 57 611 q 208 868 139 807 q 363 962 276 929 q 543 994 449 994 q 826 897 717 994 q 946 676 935 799 l 776 676 q 692 803 761 758 q 536 847 624 847 q 328 758 414 847 q 243 490 243 668 q 326 223 243 318 q 542 128 408 128 q 709 178 639 128 q 792 335 779 229 z "},"ģ":{"ha":775,"x_min":44,"x_max":694,"o":"m 519 -8 l 519 65 q 338 -11 451 -11 q 122 83 199 -11 q 44 314 44 178 q 127 549 44 456 q 340 643 210 643 q 519 572 449 643 l 519 625 l 694 625 l 694 -7 q 617 -222 694 -139 q 374 -304 539 -304 q 164 -247 243 -304 q 85 -71 85 -190 l 247 -71 q 275 -148 247 -119 q 376 -176 303 -176 q 488 -138 456 -176 q 519 -8 519 -100 m 379 117 q 490 169 450 117 q 529 315 529 222 q 488 462 529 414 q 382 510 447 510 q 270 458 313 510 q 228 315 228 406 q 267 173 228 229 q 379 117 307 117 m 446 722 l 271 722 l 353 992 l 446 992 l 446 722 z "},"Ĥ":{"ha":1004,"x_min":113,"x_max":892,"o":"m 892 0 l 715 0 l 715 421 l 289 421 l 289 0 l 113 0 l 113 972 l 289 972 l 289 571 l 715 571 l 715 972 l 892 972 l 892 0 m 728 1069 l 592 1069 l 501 1185 l 413 1069 l 276 1069 l 397 1275 l 606 1275 l 728 1069 z "},"ĥ":{"ha":753,"x_min":-57,"x_max":676,"o":"m 676 0 l 500 0 l 500 371 q 482 466 500 436 q 413 496 464 496 q 299 449 343 496 q 256 325 256 401 l 256 0 l 81 0 l 81 994 l 256 994 l 256 533 q 472 643 335 643 q 676 403 676 643 l 676 0 m 394 1046 l 258 1046 l 168 1163 l 79 1046 l -57 1046 l 65 1251 l 274 1251 l 394 1046 z "},"Ħ":{"ha":1007,"x_min":35,"x_max":972,"o":"m 893 0 l 717 0 l 717 421 l 290 421 l 290 0 l 114 0 l 114 726 l 35 726 l 35 850 l 114 850 l 114 972 l 290 972 l 290 850 l 717 850 l 717 972 l 893 972 l 893 850 l 972 850 l 972 726 l 893 726 l 893 0 m 717 571 l 717 726 l 290 726 l 290 571 l 717 571 z "},"ħ":{"ha":753,"x_min":8,"x_max":676,"o":"m 676 0 l 500 0 l 500 371 q 482 466 500 436 q 413 496 464 496 q 299 449 343 496 q 256 325 256 401 l 256 0 l 81 0 l 81 761 l 8 761 l 8 886 l 81 886 l 81 994 l 256 994 l 256 886 l 469 886 l 469 761 l 256 761 l 256 533 q 472 643 335 643 q 676 403 676 643 l 676 0 z "},"Ĩ":{"ha":401,"x_min":-29,"x_max":432,"o":"m 289 0 l 113 0 l 113 972 l 289 972 l 289 0 m 336 1239 l 432 1239 q 399 1119 429 1167 q 306 1071 368 1071 q 201 1101 263 1071 q 115 1131 139 1131 q 65 1069 68 1131 l -29 1069 q 3 1190 -29 1142 q 107 1239 35 1239 q 201 1210 140 1239 q 285 1182 263 1182 q 336 1239 333 1182 z "},"ĩ":{"ha":336,"x_min":-62,"x_max":399,"o":"m 256 0 l 81 0 l 81 625 l 256 625 l 256 0 m 303 893 l 399 893 q 365 773 396 821 q 272 725 335 725 q 167 755 229 725 q 82 785 106 785 q 32 724 35 785 l -62 724 q -31 844 -62 796 q 74 893 1 893 q 168 865 107 893 q 251 836 229 836 q 303 893 300 836 z "},"Ī":{"ha":401,"x_min":-17,"x_max":421,"o":"m 289 0 l 113 0 l 113 972 l 289 972 l 289 0 m 421 1097 l -17 1097 l -17 1221 l 421 1221 l 421 1097 z "},"ī":{"ha":336,"x_min":-50,"x_max":388,"o":"m 256 0 l 81 0 l 81 625 l 256 625 l 256 0 m 388 750 l -50 750 l -50 874 l 388 874 l 388 750 z "},"Ĭ":{"ha":401,"x_min":-8,"x_max":411,"o":"m 289 0 l 113 0 l 113 972 l 289 972 l 289 0 m 313 1263 l 411 1263 q 343 1120 401 1172 q 201 1068 285 1068 q 60 1119 118 1068 q -8 1263 1 1171 l 90 1263 q 200 1168 108 1168 q 313 1263 297 1168 z "},"ĭ":{"ha":336,"x_min":-42,"x_max":378,"o":"m 256 0 l 81 0 l 81 625 l 256 625 l 256 0 m 279 915 l 378 915 q 310 773 368 825 q 168 721 251 721 q 26 772 85 721 q -42 915 -32 824 l 57 915 q 167 821 75 821 q 279 915 264 821 z "},"Į":{"ha":401,"x_min":43,"x_max":351,"o":"m 351 -217 l 304 -310 q 265 -314 267 -314 q 103 -266 163 -314 q 43 -146 43 -218 q 113 0 43 -68 l 113 972 l 289 972 l 289 -6 q 193 -51 222 -17 q 164 -129 164 -85 q 268 -218 164 -208 q 351 -217 311 -222 z "},"į":{"ha":336,"x_min":15,"x_max":322,"o":"m 322 -212 l 275 -306 q 238 -310 258 -310 q 75 -262 135 -310 q 15 -143 15 -214 q 81 0 15 -65 l 81 625 l 256 625 l 256 -6 q 163 -49 192 -15 q 135 -125 135 -82 q 250 -217 135 -208 q 322 -212 286 -219 m 256 776 l 81 776 l 81 929 l 256 929 l 256 776 z "},"İ":{"ha":401,"x_min":113,"x_max":289,"o":"m 289 0 l 113 0 l 113 972 l 289 972 l 289 0 m 282 1069 l 119 1069 l 119 1214 l 282 1214 l 282 1069 z "},"ı":{"ha":336,"x_min":81,"x_max":256,"o":"m 256 0 l 81 0 l 81 625 l 256 625 l 256 0 z "},"Ĳ":{"ha":853,"x_min":113,"x_max":746,"o":"m 289 0 l 113 0 l 113 972 l 289 972 l 289 0 m 438 7 l 438 138 q 499 128 471 128 q 557 154 544 128 q 569 250 569 181 l 569 972 l 746 972 l 746 268 q 544 -19 746 -19 q 438 7 478 -19 z "},"ĳ":{"ha":672,"x_min":81,"x_max":592,"o":"m 256 0 l 81 0 l 81 625 l 256 625 l 256 0 m 256 776 l 81 776 l 81 929 l 256 929 l 256 776 m 335 -267 l 335 -142 q 346 -143 340 -143 q 403 -113 389 -143 q 417 -6 417 -83 l 417 625 l 592 625 l 592 8 q 538 -195 592 -121 q 372 -269 485 -269 q 335 -267 346 -269 m 592 776 l 417 776 l 417 929 l 592 929 l 592 776 z "},"Ĵ":{"ha":451,"x_min":29,"x_max":481,"o":"m 36 7 l 36 138 q 97 128 69 128 q 156 154 143 128 q 168 250 168 181 l 168 972 l 344 972 l 344 268 q 143 -19 344 -19 q 36 7 75 -19 m 481 1069 l 344 1069 l 254 1185 l 165 1069 l 29 1069 l 151 1275 l 360 1275 l 481 1069 z "},"ĵ":{"ha":336,"x_min":-57,"x_max":394,"o":"m -1 -267 l -1 -142 q 10 -143 4 -143 q 67 -113 53 -143 q 81 -6 81 -83 l 81 625 l 256 625 l 256 8 q 202 -195 256 -121 q 36 -269 149 -269 q -1 -267 10 -269 m 394 722 l 258 722 l 168 838 l 79 722 l -57 722 l 64 928 l 272 928 l 394 722 z "},"Ķ":{"ha":839,"x_min":113,"x_max":847,"o":"m 847 0 l 628 0 l 289 457 l 289 0 l 113 0 l 113 972 l 289 972 l 289 526 l 606 974 l 813 974 l 471 500 l 847 0 m 471 -339 l 372 -339 l 372 -85 l 535 -85 l 471 -339 z "},"ķ":{"ha":707,"x_min":82,"x_max":703,"o":"m 703 0 l 492 0 l 257 310 l 257 0 l 82 0 l 82 994 l 257 994 l 257 361 l 472 625 l 685 625 l 439 335 l 703 0 m 390 -339 l 292 -339 l 292 -85 l 454 -85 l 390 -339 z "},"ĸ":{"ha":707,"x_min":81,"x_max":701,"o":"m 701 0 l 490 0 l 256 310 l 256 0 l 81 0 l 81 625 l 256 625 l 256 361 l 471 625 l 683 625 l 438 335 l 701 0 z "},"Ĺ":{"ha":701,"x_min":113,"x_max":688,"o":"m 688 0 l 113 0 l 113 972 l 289 972 l 289 150 l 688 150 l 688 0 m 249 1069 l 119 1069 l 219 1275 l 418 1275 l 249 1069 z "},"ĺ":{"ha":342,"x_min":83,"x_max":382,"o":"m 258 0 l 83 0 l 83 994 l 258 994 l 258 0 m 213 1065 l 83 1065 l 185 1271 l 382 1271 l 213 1065 z "},"Ļ":{"ha":703,"x_min":113,"x_max":688,"o":"m 688 0 l 113 0 l 113 972 l 289 972 l 289 150 l 688 150 l 688 0 m 435 -339 l 336 -339 l 336 -85 l 499 -85 l 435 -339 z "},"ļ":{"ha":344,"x_min":85,"x_max":260,"o":"m 260 0 l 85 0 l 85 994 l 260 994 l 260 0 m 193 -339 l 93 -339 l 93 -85 l 257 -85 l 193 -339 z "},"Ľ":{"ha":708,"x_min":113,"x_max":688,"o":"m 688 0 l 113 0 l 113 972 l 289 972 l 289 150 l 688 150 l 688 0 m 582 690 l 485 690 l 485 972 l 668 972 l 582 690 z "},"ľ":{"ha":390,"x_min":83,"x_max":540,"o":"m 258 0 l 83 0 l 83 994 l 258 994 l 258 0 m 458 703 l 365 703 l 365 972 l 540 972 l 458 703 z "},"Ŀ":{"ha":711,"x_min":113,"x_max":688,"o":"m 688 0 l 113 0 l 113 972 l 289 972 l 289 150 l 688 150 l 688 0 m 658 421 l 475 421 l 475 579 l 658 579 l 658 421 z "},"ŀ":{"ha":589,"x_min":83,"x_max":557,"o":"m 258 0 l 83 0 l 83 994 l 258 994 l 258 0 m 557 407 l 374 407 l 374 565 l 557 565 l 557 407 z "},"Ł":{"ha":711,"x_min":26,"x_max":697,"o":"m 697 0 l 122 0 l 122 251 l 26 171 l 26 339 l 122 421 l 122 972 l 299 972 l 299 569 l 457 708 l 457 539 l 299 401 l 299 150 l 697 150 l 697 0 z "},"ł":{"ha":435,"x_min":39,"x_max":400,"o":"m 307 0 l 132 0 l 132 285 l 39 204 l 39 357 l 132 438 l 132 994 l 307 994 l 307 589 l 400 669 l 400 517 l 307 436 l 307 0 z "},"Ń":{"ha":1081,"x_min":113,"x_max":968,"o":"m 968 0 l 757 0 l 289 711 l 289 0 l 113 0 l 113 972 l 322 972 l 792 263 l 792 972 l 968 972 l 968 0 m 610 1069 l 481 1069 l 582 1275 l 779 1275 l 610 1069 z "},"ń":{"ha":753,"x_min":81,"x_max":676,"o":"m 676 0 l 500 0 l 500 367 q 479 465 500 433 q 404 496 458 496 q 295 449 335 496 q 256 325 256 401 l 256 0 l 81 0 l 81 625 l 256 625 l 256 535 q 464 643 335 643 q 676 381 676 643 l 676 0 m 406 722 l 276 722 l 378 928 l 575 928 l 406 722 z "},"Ņ":{"ha":1081,"x_min":113,"x_max":968,"o":"m 968 0 l 757 0 l 289 711 l 289 0 l 113 0 l 113 972 l 322 972 l 792 263 l 792 972 l 968 972 l 968 0 m 557 -339 l 458 -339 l 458 -85 l 621 -85 l 557 -339 z "},"ņ":{"ha":754,"x_min":82,"x_max":678,"o":"m 678 0 l 501 0 l 501 367 q 481 465 501 433 q 406 496 460 496 q 297 449 336 496 q 257 325 257 401 l 257 0 l 82 0 l 82 625 l 257 625 l 257 535 q 465 643 336 643 q 678 381 678 643 l 678 0 m 400 -339 l 301 -339 l 301 -85 l 464 -85 l 400 -339 z "},"Ň":{"ha":1081,"x_min":113,"x_max":968,"o":"m 968 0 l 757 0 l 289 711 l 289 0 l 113 0 l 113 972 l 322 972 l 792 263 l 792 972 l 968 972 l 968 0 m 668 1069 l 460 1069 l 339 1275 l 475 1275 l 564 1158 l 654 1275 l 790 1275 l 668 1069 z "},"ň":{"ha":753,"x_min":81,"x_max":676,"o":"m 676 0 l 500 0 l 500 367 q 479 465 500 433 q 404 496 458 496 q 295 449 335 496 q 256 325 256 401 l 256 0 l 81 0 l 81 625 l 256 625 l 256 535 q 464 643 335 643 q 676 381 676 643 l 676 0 m 479 722 l 271 722 l 149 928 l 285 928 l 374 811 l 464 928 l 600 928 l 479 722 z "},"Ŋ":{"ha":1081,"x_min":113,"x_max":968,"o":"m 661 -267 l 661 -136 q 721 -146 694 -146 q 781 -116 768 -146 q 793 0 793 -86 l 757 0 l 289 710 l 289 0 l 113 0 l 113 972 l 322 972 l 792 263 l 792 972 l 968 972 l 968 -44 q 918 -228 968 -162 q 768 -293 868 -293 q 661 -267 699 -293 z "},"ŋ":{"ha":753,"x_min":81,"x_max":676,"o":"m 419 -267 l 419 -142 q 431 -143 425 -143 q 487 -113 474 -143 q 500 -6 500 -83 l 500 367 q 479 465 500 433 q 404 496 458 496 q 295 449 335 496 q 256 325 256 401 l 256 0 l 81 0 l 81 625 l 256 625 l 256 535 q 464 643 335 643 q 676 381 676 643 l 676 8 q 623 -195 676 -121 q 457 -269 569 -269 q 419 -267 431 -269 z "},"Ō":{"ha":1104,"x_min":56,"x_max":1049,"o":"m 794 38 q 738 9 794 38 q 551 -19 682 -19 q 310 38 421 -19 q 127 214 199 96 q 56 488 56 332 q 203 857 56 719 q 551 994 350 994 q 901 857 754 994 q 1049 488 1049 719 q 977 214 1049 332 q 794 38 906 96 m 551 128 q 778 226 693 128 q 863 488 863 325 q 777 748 863 649 q 551 847 692 847 q 326 748 411 847 q 242 488 242 649 q 326 226 242 325 q 551 128 411 128 m 769 1097 l 332 1097 l 332 1221 l 769 1221 l 769 1097 z "},"ō":{"ha":779,"x_min":43,"x_max":736,"o":"m 607 750 l 169 750 l 169 874 l 607 874 l 607 750 m 644 547 q 690 498 644 547 q 736 315 736 450 q 644 85 736 181 q 389 -11 553 -11 q 134 85 225 -11 q 43 315 43 181 q 135 547 43 450 q 389 643 226 643 q 644 547 553 643 m 269 174 q 290 148 269 174 q 389 122 311 122 q 508 174 467 122 q 550 314 550 226 q 508 456 550 403 q 389 510 467 510 q 269 456 311 510 q 228 314 228 403 q 269 174 228 226 z "},"Ŏ":{"ha":1104,"x_min":56,"x_max":1049,"o":"m 794 38 q 738 9 794 38 q 551 -19 682 -19 q 310 38 421 -19 q 127 214 199 96 q 56 488 56 332 q 203 857 56 719 q 551 994 350 994 q 901 857 754 994 q 1049 488 1049 719 q 977 214 1049 332 q 794 38 906 96 m 551 128 q 778 226 693 128 q 863 488 863 325 q 777 748 863 649 q 551 847 692 847 q 326 748 411 847 q 242 488 242 649 q 326 226 242 325 q 551 128 411 128 m 663 1263 l 761 1263 q 693 1120 751 1172 q 551 1068 635 1068 q 410 1119 468 1068 q 342 1263 351 1171 l 440 1263 q 550 1168 458 1168 q 663 1263 647 1168 z "},"ŏ":{"ha":779,"x_min":43,"x_max":736,"o":"m 500 915 l 599 915 q 531 773 589 825 q 389 721 472 721 q 247 772 306 721 q 179 915 189 824 l 278 915 q 388 821 296 821 q 500 915 485 821 m 644 547 q 690 498 644 547 q 736 315 736 450 q 644 85 736 181 q 389 -11 553 -11 q 134 85 225 -11 q 43 315 43 181 q 135 547 43 450 q 389 643 226 643 q 644 547 553 643 m 269 174 q 290 148 269 174 q 389 122 311 122 q 508 174 467 122 q 550 314 550 226 q 508 456 550 403 q 389 510 467 510 q 269 456 311 510 q 228 314 228 403 q 269 174 228 226 z "},"Ő":{"ha":1104,"x_min":56,"x_max":1049,"o":"m 794 38 q 738 9 794 38 q 551 -19 682 -19 q 310 38 421 -19 q 127 214 199 96 q 56 488 56 332 q 203 857 56 719 q 551 994 350 994 q 901 857 754 994 q 1049 488 1049 719 q 977 214 1049 332 q 794 38 906 96 m 551 128 q 778 226 693 128 q 863 488 863 325 q 777 748 863 649 q 551 847 692 847 q 326 748 411 847 q 242 488 242 649 q 326 226 242 325 q 551 128 411 128 m 440 1069 l 311 1069 l 411 1275 l 610 1275 l 440 1069 m 701 1069 l 572 1069 l 672 1275 l 871 1275 l 701 1069 z "},"ő":{"ha":779,"x_min":43,"x_max":736,"o":"m 272 722 l 143 722 l 244 928 l 442 928 l 272 722 m 533 722 l 404 722 l 506 928 l 703 928 l 533 722 m 644 547 q 690 498 644 547 q 736 315 736 450 q 644 85 736 181 q 389 -11 553 -11 q 134 85 225 -11 q 43 315 43 181 q 135 547 43 450 q 389 643 226 643 q 644 547 553 643 m 269 174 q 290 148 269 174 q 389 122 311 122 q 508 174 467 122 q 550 314 550 226 q 508 456 550 403 q 389 510 467 510 q 269 456 311 510 q 228 314 228 403 q 269 174 228 226 z "},"Œ":{"ha":1543,"x_min":56,"x_max":1478,"o":"m 1478 0 l 863 0 l 863 107 q 551 -19 740 -19 q 310 38 421 -19 q 127 214 199 96 q 56 488 56 332 q 203 857 56 719 q 551 994 350 994 q 863 865 739 994 l 863 972 l 1471 972 l 1471 822 l 1039 822 l 1039 572 l 1443 572 l 1443 422 l 1039 422 l 1039 150 l 1478 150 l 1478 0 m 551 128 q 778 226 693 128 q 863 488 863 325 q 777 748 863 649 q 551 847 692 847 q 326 748 411 847 q 242 488 242 649 q 326 226 242 325 q 551 128 411 128 z "},"œ":{"ha":1240,"x_min":43,"x_max":1200,"o":"m 1200 282 l 736 282 q 779 160 739 203 q 892 118 819 118 q 1022 206 1001 118 l 1196 206 q 1104 53 1182 117 q 892 -11 1026 -11 q 642 83 732 -11 q 389 -11 544 -11 q 134 85 225 -11 q 43 315 43 181 q 135 547 43 450 q 389 643 226 643 q 640 547 544 643 q 890 643 732 643 q 1122 551 1043 643 q 1200 282 1200 460 m 269 174 q 290 148 269 174 q 389 122 311 122 q 508 174 467 122 q 550 319 550 226 q 508 458 550 406 q 389 510 467 510 q 269 456 311 510 q 228 314 228 403 q 269 174 228 226 m 743 389 l 1022 389 q 889 517 1010 517 q 743 389 768 517 z "},"Ŕ":{"ha":819,"x_min":113,"x_max":764,"o":"m 764 0 l 567 0 l 361 383 l 283 383 l 283 0 l 113 0 l 113 972 l 379 972 q 635 918 550 972 q 751 689 751 844 q 694 512 751 583 q 535 410 638 440 l 764 0 m 283 525 l 379 525 q 572 674 572 525 q 528 785 572 749 q 381 821 485 821 l 283 821 l 283 525 m 422 1069 l 293 1069 l 393 1275 l 592 1275 l 422 1069 z "},"ŕ":{"ha":533,"x_min":81,"x_max":514,"o":"m 256 0 l 81 0 l 81 625 l 256 625 l 256 525 q 444 643 329 643 q 514 626 489 643 l 514 483 q 446 493 489 493 q 256 221 256 493 l 256 0 m 311 722 l 182 722 l 283 928 l 481 928 l 311 722 z "},"Ŗ":{"ha":819,"x_min":113,"x_max":764,"o":"m 764 0 l 567 0 l 361 383 l 283 383 l 283 0 l 113 0 l 113 972 l 379 972 q 635 918 550 972 q 751 689 751 844 q 694 512 751 583 q 535 410 638 440 l 764 0 m 283 525 l 379 525 q 572 674 572 525 q 528 785 572 749 q 381 821 485 821 l 283 821 l 283 525 m 436 -339 l 338 -339 l 338 -85 l 500 -85 l 436 -339 z "},"ŗ":{"ha":536,"x_min":82,"x_max":515,"o":"m 257 0 l 82 0 l 82 625 l 257 625 l 257 525 q 446 643 331 643 q 515 626 490 643 l 515 483 q 447 493 490 493 q 303 418 349 493 q 257 165 257 343 l 257 0 m 203 -339 l 103 -339 l 103 -85 l 267 -85 l 203 -339 z "},"Ř":{"ha":819,"x_min":113,"x_max":764,"o":"m 764 0 l 567 0 l 361 383 l 283 383 l 283 0 l 113 0 l 113 972 l 379 972 q 635 918 550 972 q 751 689 751 844 q 694 512 751 583 q 535 410 638 440 l 764 0 m 283 525 l 379 525 q 572 674 572 525 q 528 785 572 749 q 381 821 485 821 l 283 821 l 283 525 m 499 1069 l 290 1069 l 168 1275 l 304 1275 l 393 1158 l 483 1275 l 619 1275 l 499 1069 z "},"ř":{"ha":533,"x_min":57,"x_max":514,"o":"m 256 0 l 81 0 l 81 625 l 256 625 l 256 525 q 444 643 329 643 q 514 626 489 643 l 514 483 q 446 493 489 493 q 256 221 256 493 l 256 0 m 386 722 l 178 722 l 57 928 l 193 928 l 282 811 l 372 928 l 508 928 l 386 722 z "},"Ś":{"ha":831,"x_min":60,"x_max":779,"o":"m 749 707 l 579 707 q 411 856 579 856 q 276 816 315 856 q 236 725 236 776 q 292 633 236 665 q 428 583 349 600 q 588 541 508 565 q 723 455 667 517 q 779 292 779 393 q 686 68 779 156 q 415 -19 593 -19 q 158 60 256 -19 q 60 310 60 139 l 229 310 q 419 121 229 121 q 564 162 522 121 q 606 258 606 203 q 576 337 606 306 q 499 385 546 368 q 394 415 451 401 q 279 446 336 428 q 175 491 222 464 q 98 569 128 518 q 68 694 68 621 q 156 910 68 825 q 419 994 244 994 q 665 919 581 994 q 749 707 749 843 m 426 1069 l 297 1069 l 399 1275 l 596 1275 l 426 1069 z "},"ś":{"ha":653,"x_min":49,"x_max":610,"o":"m 339 722 l 210 722 l 311 928 l 508 928 l 339 722 m 590 461 l 424 461 q 328 531 418 531 q 254 513 278 531 q 231 469 231 496 q 269 418 231 436 q 364 390 308 400 q 476 363 419 379 q 571 307 532 347 q 610 200 610 267 q 542 50 610 111 q 326 -11 474 -11 q 49 199 58 -11 l 214 203 q 328 103 218 103 q 405 122 379 103 q 431 172 431 142 q 392 228 431 208 q 297 258 353 247 q 185 283 240 268 q 90 337 129 297 q 51 442 51 376 q 125 589 51 535 q 332 643 199 643 q 521 596 454 643 q 590 461 588 549 z "},"Ŝ":{"ha":831,"x_min":60,"x_max":779,"o":"m 749 707 l 579 707 q 411 856 579 856 q 276 816 315 856 q 236 725 236 776 q 292 633 236 665 q 428 583 349 600 q 588 541 508 565 q 723 455 667 517 q 779 292 779 393 q 686 68 779 156 q 415 -19 593 -19 q 158 60 256 -19 q 60 310 60 139 l 229 310 q 419 121 229 121 q 564 162 522 121 q 606 258 606 203 q 576 337 606 306 q 499 385 546 368 q 394 415 451 401 q 279 446 336 428 q 175 491 222 464 q 98 569 128 518 q 68 694 68 621 q 156 910 68 825 q 419 994 244 994 q 665 919 581 994 q 749 707 749 843 m 632 1069 l 496 1069 l 406 1185 l 317 1069 l 181 1069 l 303 1275 l 511 1275 l 632 1069 z "},"ŝ":{"ha":653,"x_min":49,"x_max":610,"o":"m 546 722 l 410 722 l 319 838 l 231 722 l 94 722 l 215 928 l 424 928 l 546 722 m 590 461 l 424 461 q 328 531 418 531 q 254 513 278 531 q 231 469 231 496 q 269 418 231 436 q 364 390 308 400 q 476 363 419 379 q 571 307 532 347 q 610 200 610 267 q 542 50 610 111 q 326 -11 474 -11 q 49 199 58 -11 l 214 203 q 328 103 218 103 q 405 122 379 103 q 431 172 431 142 q 392 228 431 208 q 297 258 353 247 q 185 283 240 268 q 90 337 129 297 q 51 442 51 376 q 125 589 51 535 q 332 643 199 643 q 521 596 454 643 q 590 461 588 549 z "},"Ş":{"ha":831,"x_min":60,"x_max":779,"o":"m 269 -290 l 292 -207 q 390 -225 331 -225 q 450 -209 426 -225 q 474 -168 474 -193 q 469 -148 474 -157 q 454 -133 464 -139 q 435 -124 444 -128 q 410 -117 426 -119 q 386 -112 394 -114 q 362 -110 378 -111 q 343 -108 346 -108 l 371 -18 q 144 72 229 -8 q 60 310 60 151 l 229 310 q 419 121 229 121 q 564 162 522 121 q 606 258 606 203 q 576 337 606 306 q 499 385 546 368 q 394 415 451 401 q 279 446 336 428 q 175 491 222 464 q 98 569 128 518 q 68 694 68 621 q 156 910 68 825 q 419 994 244 994 q 665 919 581 994 q 749 707 749 843 l 579 707 q 411 856 579 856 q 276 816 315 856 q 236 725 236 776 q 292 633 236 665 q 428 583 349 600 q 588 541 508 565 q 723 455 667 517 q 779 292 779 393 q 699 81 779 167 q 468 -17 619 -4 l 456 -60 q 561 -92 519 -62 q 603 -174 603 -122 q 544 -276 603 -239 q 399 -314 485 -314 q 269 -290 329 -314 z "},"ş":{"ha":653,"x_min":49,"x_max":610,"o":"m 172 -287 l 194 -203 q 293 -221 228 -221 q 353 -206 329 -221 q 376 -165 376 -190 q 310 -117 376 -121 q 242 -122 275 -117 l 275 -10 q 49 199 58 10 l 214 203 q 328 103 218 103 q 404 122 378 103 q 431 172 431 142 q 392 228 431 208 q 297 258 353 247 q 185 283 240 268 q 90 337 129 297 q 51 442 51 376 q 125 589 51 535 q 332 643 199 643 q 521 596 454 643 q 590 461 588 549 l 424 461 q 328 531 418 531 q 254 513 278 531 q 231 469 231 496 q 269 418 231 436 q 364 390 308 400 q 476 363 419 379 q 571 307 532 347 q 610 200 610 267 q 553 59 610 118 q 372 -10 496 0 l 358 -57 q 464 -89 422 -60 q 506 -171 506 -118 q 447 -273 506 -236 q 303 -310 388 -310 q 172 -287 235 -310 z "},"Š":{"ha":831,"x_min":60,"x_max":779,"o":"m 749 707 l 579 707 q 411 856 579 856 q 276 816 315 856 q 236 725 236 776 q 292 633 236 665 q 428 583 349 600 q 588 541 508 565 q 723 455 667 517 q 779 292 779 393 q 686 68 779 156 q 415 -19 593 -19 q 158 60 256 -19 q 60 310 60 139 l 229 310 q 419 121 229 121 q 564 162 522 121 q 606 258 606 203 q 576 337 606 306 q 499 385 546 368 q 394 415 451 401 q 279 446 336 428 q 175 491 222 464 q 98 569 128 518 q 68 694 68 621 q 156 910 68 825 q 419 994 244 994 q 665 919 581 994 q 749 707 749 843 m 510 1069 l 301 1069 l 179 1275 l 315 1275 l 404 1158 l 494 1275 l 631 1275 l 510 1069 z "},"š":{"ha":653,"x_min":49,"x_max":610,"o":"m 426 722 l 218 722 l 96 928 l 232 928 l 321 811 l 411 928 l 547 928 l 426 722 m 590 461 l 424 461 q 328 531 418 531 q 254 513 278 531 q 231 469 231 496 q 269 418 231 436 q 364 390 308 400 q 476 363 419 379 q 571 307 532 347 q 610 200 610 267 q 542 50 610 111 q 326 -11 474 -11 q 49 199 58 -11 l 214 203 q 328 103 218 103 q 405 122 379 103 q 431 172 431 142 q 392 228 431 208 q 297 258 353 247 q 185 283 240 268 q 90 337 129 297 q 51 442 51 376 q 125 589 51 535 q 332 643 199 643 q 521 596 454 643 q 590 461 588 549 z "},"Ţ":{"ha":728,"x_min":22,"x_max":706,"o":"m 451 0 l 275 0 l 275 822 l 22 822 l 22 972 l 706 972 l 706 822 l 451 822 l 451 0 m 383 -339 l 283 -339 l 283 -85 l 447 -85 l 383 -339 z "},"ţ":{"ha":518,"x_min":26,"x_max":476,"o":"m 476 151 l 476 21 q 339 -11 424 -11 q 119 231 119 -11 l 119 485 l 26 485 l 26 625 l 119 625 l 119 810 l 296 868 l 296 625 l 476 625 l 476 485 l 296 485 l 296 281 q 311 166 296 197 q 381 135 326 135 q 476 151 426 135 m 326 -339 l 226 -339 l 226 -85 l 390 -85 l 326 -339 z "},"Ť":{"ha":728,"x_min":22,"x_max":706,"o":"m 451 0 l 275 0 l 275 822 l 22 822 l 22 972 l 706 972 l 706 822 l 451 822 l 451 0 m 467 1069 l 258 1069 l 138 1275 l 274 1275 l 363 1158 l 453 1275 l 589 1275 l 467 1069 z "},"ť":{"ha":518,"x_min":26,"x_max":581,"o":"m 476 151 l 476 21 q 339 -11 424 -11 q 119 231 119 -11 l 119 485 l 26 485 l 26 625 l 119 625 l 119 810 l 296 868 l 296 625 l 476 625 l 476 485 l 296 485 l 296 281 q 311 166 296 197 q 381 135 326 135 q 476 151 426 135 m 499 708 l 404 708 l 404 978 l 581 978 l 499 708 z "},"Ŧ":{"ha":728,"x_min":22,"x_max":706,"o":"m 451 0 l 275 0 l 275 501 l 131 501 l 131 625 l 275 625 l 275 822 l 22 822 l 22 972 l 706 972 l 706 822 l 451 822 l 451 625 l 596 625 l 596 501 l 451 501 l 451 0 z "},"ŧ":{"ha":519,"x_min":26,"x_max":476,"o":"m 476 151 l 476 21 q 339 -11 424 -11 q 169 57 219 -11 q 119 279 119 125 l 38 279 l 38 396 l 119 396 l 119 485 l 26 485 l 26 625 l 119 625 l 119 810 l 296 868 l 296 625 l 476 625 l 476 485 l 296 485 l 296 396 l 454 396 l 454 279 l 296 279 l 296 249 q 314 162 296 189 q 381 135 332 135 q 476 151 426 135 z "},"Ũ":{"ha":971,"x_min":106,"x_max":867,"o":"m 690 372 l 690 972 l 867 972 l 867 371 q 810 115 867 197 q 486 -19 715 -19 q 164 115 258 -19 q 106 371 106 200 l 106 972 l 282 972 l 282 372 q 327 185 282 243 q 486 128 372 128 q 647 186 603 128 q 690 372 690 244 m 624 1240 l 719 1240 q 686 1120 717 1168 q 593 1072 656 1072 q 488 1102 550 1072 q 403 1132 426 1132 q 353 1071 356 1132 l 258 1071 q 290 1192 258 1143 q 394 1240 322 1240 q 489 1212 428 1240 q 572 1183 550 1183 q 624 1240 621 1183 z "},"ũ":{"ha":753,"x_min":76,"x_max":672,"o":"m 672 0 l 496 0 l 496 97 q 292 -11 422 -11 q 125 68 183 -11 q 76 250 76 135 l 76 625 l 251 625 l 251 265 q 272 167 251 199 q 349 136 293 136 q 457 183 418 136 q 496 310 496 229 l 496 625 l 672 625 l 672 0 m 508 893 l 604 893 q 571 773 601 821 q 478 725 540 725 q 373 755 435 725 q 288 785 311 785 q 238 724 240 785 l 143 724 q 175 844 143 796 q 279 893 207 893 q 374 865 313 893 q 457 836 435 836 q 508 893 506 836 z "},"Ū":{"ha":971,"x_min":106,"x_max":867,"o":"m 690 372 l 690 972 l 867 972 l 867 371 q 810 115 867 197 q 486 -19 715 -19 q 164 115 258 -19 q 106 371 106 200 l 106 972 l 282 972 l 282 372 q 306 221 282 269 q 486 128 351 128 q 668 221 622 128 q 690 372 690 267 m 708 1097 l 271 1097 l 271 1221 l 708 1221 l 708 1097 z "},"ū":{"ha":753,"x_min":76,"x_max":672,"o":"m 596 750 l 158 750 l 158 874 l 596 874 l 596 750 m 672 0 l 496 0 l 496 97 q 292 -11 422 -11 q 125 68 183 -11 q 76 250 76 135 l 76 625 l 251 625 l 251 265 q 272 167 251 199 q 349 136 293 136 q 457 183 418 136 q 496 310 496 229 l 496 625 l 672 625 l 672 0 z "},"Ŭ":{"ha":971,"x_min":106,"x_max":867,"o":"m 690 372 l 690 972 l 867 972 l 867 371 q 810 115 867 197 q 486 -19 715 -19 q 164 115 258 -19 q 106 371 106 200 l 106 972 l 282 972 l 282 372 q 306 221 282 269 q 486 128 351 128 q 668 221 622 128 q 690 372 690 267 m 600 1263 l 699 1263 q 630 1118 689 1168 q 489 1068 571 1068 q 346 1121 403 1068 q 281 1263 289 1174 l 379 1263 q 489 1168 394 1168 q 600 1263 585 1168 z "},"ŭ":{"ha":753,"x_min":76,"x_max":672,"o":"m 488 915 l 586 915 q 517 771 576 821 q 376 721 458 721 q 233 774 290 721 q 168 915 176 826 l 267 915 q 376 821 282 821 q 488 915 472 821 m 672 0 l 496 0 l 496 97 q 292 -11 422 -11 q 125 68 183 -11 q 76 250 76 135 l 76 625 l 251 625 l 251 265 q 272 167 251 199 q 349 136 293 136 q 457 183 418 136 q 496 310 496 229 l 496 625 l 672 625 l 672 0 z "},"Ů":{"ha":971,"x_min":106,"x_max":867,"o":"m 690 372 l 690 972 l 867 972 l 867 371 q 810 115 867 197 q 486 -19 715 -19 q 164 115 258 -19 q 106 371 106 200 l 106 972 l 282 972 l 282 372 q 306 221 282 269 q 486 128 351 128 q 668 221 622 128 q 690 372 690 267 m 584 1081 q 564 1061 584 1081 q 489 1042 544 1042 q 394 1081 433 1042 q 356 1178 356 1121 q 394 1273 356 1233 q 489 1313 433 1313 q 584 1273 544 1313 q 624 1178 624 1233 q 584 1081 624 1121 m 531 1136 q 539 1144 531 1136 q 547 1176 547 1153 q 531 1217 547 1200 q 490 1235 514 1235 q 449 1217 465 1235 q 432 1176 432 1200 q 449 1136 432 1153 q 490 1119 467 1119 q 531 1136 514 1119 z "},"ů":{"ha":753,"x_min":76,"x_max":672,"o":"m 469 748 q 449 728 469 748 q 374 708 429 708 q 279 748 318 708 q 240 844 240 788 q 279 940 240 900 q 374 979 318 979 q 469 940 431 979 q 508 844 508 900 q 469 748 508 788 m 415 803 q 424 811 415 803 q 432 843 432 819 q 415 884 432 867 q 375 901 399 901 q 333 884 350 901 q 317 843 317 867 q 334 803 317 819 q 375 786 351 786 q 415 803 399 786 m 672 0 l 496 0 l 496 97 q 292 -11 422 -11 q 125 68 183 -11 q 76 250 76 135 l 76 625 l 251 625 l 251 265 q 272 167 251 199 q 349 136 293 136 q 457 183 418 136 q 496 310 496 229 l 496 625 l 672 625 l 672 0 z "},"Ű":{"ha":971,"x_min":106,"x_max":867,"o":"m 690 372 l 690 972 l 867 972 l 867 371 q 810 115 867 197 q 486 -19 715 -19 q 164 115 258 -19 q 106 371 106 200 l 106 972 l 282 972 l 282 372 q 306 221 282 269 q 486 128 351 128 q 668 221 622 128 q 690 372 690 267 m 392 1069 l 263 1069 l 364 1275 l 561 1275 l 392 1069 m 653 1069 l 524 1069 l 625 1275 l 822 1275 l 653 1069 z "},"ű":{"ha":753,"x_min":76,"x_max":706,"o":"m 275 722 l 146 722 l 246 928 l 444 928 l 275 722 m 536 722 l 407 722 l 507 928 l 706 928 l 536 722 m 672 0 l 496 0 l 496 97 q 292 -11 422 -11 q 125 68 183 -11 q 76 250 76 135 l 76 625 l 251 625 l 251 265 q 272 167 251 199 q 349 136 293 136 q 457 183 418 136 q 496 310 496 229 l 496 625 l 672 625 l 672 0 z "},"Ų":{"ha":971,"x_min":106,"x_max":867,"o":"m 733 -215 l 686 -308 q 649 -312 669 -312 q 486 -265 546 -312 q 426 -144 426 -217 q 476 -19 426 -78 q 196 76 286 -15 q 106 371 106 167 l 106 972 l 282 972 l 282 372 q 327 185 282 243 q 486 128 372 128 q 646 185 601 128 q 690 372 690 243 l 690 972 l 867 972 l 867 410 q 807 115 867 211 q 603 -8 747 18 q 546 -126 546 -71 q 651 -218 546 -207 q 733 -215 689 -222 z "},"ų":{"ha":753,"x_min":76,"x_max":739,"o":"m 739 -212 l 692 -306 q 653 -310 672 -310 q 490 -262 550 -310 q 431 -143 431 -214 q 496 0 431 -65 l 496 97 q 285 -11 421 -11 q 124 62 171 -11 q 76 283 76 135 l 76 625 l 251 625 l 251 265 q 273 167 251 199 q 349 136 294 136 q 457 183 418 136 q 496 310 496 229 l 496 625 l 672 625 l 672 -6 q 581 -47 611 -14 q 551 -124 551 -81 q 665 -217 551 -210 q 739 -212 701 -219 z "},"Ŵ":{"ha":1368,"x_min":22,"x_max":1346,"o":"m 1103 -6 l 899 -6 l 683 740 l 469 -6 l 265 -6 l 22 972 l 206 972 l 374 249 l 578 972 l 790 972 l 994 249 l 1163 972 l 1346 972 l 1103 -6 m 910 1069 l 774 1069 l 683 1185 l 594 1069 l 458 1069 l 579 1275 l 788 1275 l 910 1069 z "},"ŵ":{"ha":1114,"x_min":14,"x_max":1100,"o":"m 907 -4 l 678 -4 l 557 403 l 436 -4 l 207 -4 l 14 625 l 201 625 l 324 172 l 461 626 l 653 626 l 790 172 l 913 625 l 1100 625 l 907 -4 m 782 722 l 646 722 l 556 838 l 467 722 l 331 722 l 453 928 l 661 928 l 782 722 z "},"Ŷ":{"ha":785,"x_min":-1,"x_max":785,"o":"m 481 0 l 304 0 l 304 356 l -1 972 l 192 972 l 392 558 l 593 972 l 785 972 l 481 356 l 481 0 m 617 1069 l 481 1069 l 390 1185 l 301 1069 l 165 1069 l 288 1275 l 496 1275 l 617 1069 z "},"ŷ":{"ha":671,"x_min":7,"x_max":663,"o":"m 94 -251 l 94 -117 q 161 -131 126 -131 q 231 -105 206 -131 q 275 -15 256 -79 l 290 35 l 222 35 l 7 625 l 193 625 l 339 189 l 476 625 l 663 625 l 443 -36 q 344 -210 404 -153 q 186 -268 283 -268 q 94 -251 131 -268 m 561 722 l 425 722 l 335 838 l 246 722 l 110 722 l 231 928 l 439 928 l 561 722 z "},"Ÿ":{"ha":785,"x_min":-1,"x_max":785,"o":"m 481 0 l 304 0 l 304 356 l -1 972 l 192 972 l 392 558 l 593 972 l 785 972 l 481 356 l 481 0 m 353 1069 l 193 1069 l 193 1213 l 353 1213 l 353 1069 m 589 1069 l 429 1069 l 429 1213 l 589 1213 l 589 1069 z "},"Ź":{"ha":807,"x_min":47,"x_max":749,"o":"m 747 0 l 47 0 l 47 186 l 546 822 l 82 822 l 82 972 l 749 972 l 749 801 l 240 150 l 747 150 l 747 0 m 424 1069 l 294 1069 l 396 1275 l 593 1275 l 424 1069 z "},"ź":{"ha":647,"x_min":47,"x_max":593,"o":"m 593 0 l 47 0 l 47 154 l 361 482 l 67 482 l 67 625 l 593 625 l 593 479 l 272 143 l 593 143 l 593 0 m 347 722 l 218 722 l 319 928 l 517 928 l 347 722 z "},"Ż":{"ha":807,"x_min":47,"x_max":749,"o":"m 747 0 l 47 0 l 47 186 l 546 822 l 82 822 l 82 972 l 749 972 l 749 801 l 240 150 l 747 150 l 747 0 m 489 1069 l 326 1069 l 326 1214 l 489 1214 l 489 1069 z "},"ż":{"ha":647,"x_min":47,"x_max":593,"o":"m 593 0 l 47 0 l 47 154 l 361 482 l 67 482 l 67 625 l 593 625 l 593 479 l 272 143 l 593 143 l 593 0 m 401 722 l 239 722 l 239 867 l 401 867 l 401 722 z "},"Ž":{"ha":807,"x_min":47,"x_max":749,"o":"m 747 0 l 47 0 l 47 186 l 546 822 l 82 822 l 82 972 l 749 972 l 749 801 l 240 150 l 747 150 l 747 0 m 514 1069 l 306 1069 l 185 1275 l 321 1275 l 410 1158 l 500 1275 l 636 1275 l 514 1069 z "},"ž":{"ha":647,"x_min":47,"x_max":593,"o":"m 593 0 l 47 0 l 47 154 l 361 482 l 67 482 l 67 625 l 593 625 l 593 479 l 272 143 l 593 143 l 593 0 m 425 722 l 217 722 l 96 928 l 232 928 l 321 811 l 411 928 l 547 928 l 425 722 z "},"ƒ":{"ha":486,"x_min":15,"x_max":506,"o":"m 15 -268 l 26 -143 q 56 -140 42 -144 q 97 -110 86 -131 q 117 -12 108 -89 l 153 353 l 33 353 l 47 493 l 167 493 l 186 696 q 433 992 214 981 q 506 986 474 993 l 494 871 q 453 869 469 874 q 389 827 406 860 q 363 699 372 794 l 342 493 l 461 493 l 447 353 l 328 353 l 293 -1 q 61 -267 269 -247 q 15 -268 31 -269 z "},"Ǽ":{"ha":1235,"x_min":-8,"x_max":1169,"o":"m 1169 0 l 599 0 l 599 233 l 288 233 l 178 0 l -8 0 l 451 972 l 1163 972 l 1163 822 l 775 822 l 775 572 l 1135 572 l 1135 422 l 775 422 l 775 150 l 1169 150 l 1169 0 m 599 376 l 599 822 l 567 822 l 356 376 l 599 376 m 822 1069 l 693 1069 l 794 1275 l 992 1275 l 822 1069 z "},"ǽ":{"ha":1121,"x_min":42,"x_max":1082,"o":"m 594 722 l 465 722 l 565 928 l 764 928 l 594 722 m 1082 282 l 617 282 q 660 160 619 203 q 774 118 701 118 q 904 206 882 118 l 1076 206 q 985 53 1063 117 q 774 -11 907 -11 q 517 88 611 -11 q 300 -11 432 -11 q 108 41 174 -11 q 42 188 42 93 q 104 339 42 279 q 281 399 167 399 q 439 343 385 399 l 439 375 q 434 451 439 424 q 406 499 429 478 q 336 519 382 519 q 268 501 290 519 q 238 446 246 483 l 76 446 q 344 643 101 643 q 550 565 483 643 q 771 643 631 643 q 1003 551 924 643 q 1082 282 1082 460 m 410 133 q 426 146 410 133 q 442 201 442 160 q 410 267 442 243 q 331 290 379 290 q 249 263 278 290 q 219 194 219 236 q 247 130 219 154 q 324 106 274 106 q 410 133 378 106 m 624 389 l 903 389 q 769 517 890 517 q 624 389 650 517 z "},"Ǿ":{"ha":1104,"x_min":56,"x_max":1049,"o":"m 579 1069 l 450 1069 l 551 1275 l 749 1275 l 579 1069 m 188 -15 l 93 71 l 168 154 q 56 488 56 289 q 203 857 56 719 q 551 994 350 994 q 842 904 713 994 l 918 989 l 1011 906 l 935 821 q 1049 488 1049 685 q 977 214 1049 332 q 794 38 906 96 q 551 -19 682 -19 q 263 68 388 -19 l 188 -15 m 818 690 l 368 186 q 551 128 443 128 q 780 231 697 128 q 863 489 863 333 q 818 690 863 600 m 286 286 l 736 786 q 551 847 660 847 q 321 742 399 847 q 243 482 243 636 q 286 286 243 376 z "},"ǿ":{"ha":779,"x_min":43,"x_max":736,"o":"m 411 722 l 282 722 l 383 928 l 581 928 l 411 722 m 158 -61 l 78 1 l 140 82 q 43 317 43 175 q 135 547 43 451 q 389 643 226 643 q 551 611 481 643 l 619 700 l 700 642 l 635 556 q 736 315 736 458 q 644 85 736 181 q 389 -11 553 -11 q 224 24 296 -11 l 158 -61 m 535 424 l 308 136 q 389 115 344 115 q 512 171 467 115 q 557 315 557 226 q 535 424 557 378 m 242 214 l 465 499 q 389 517 435 517 q 266 460 311 517 q 221 315 221 403 q 242 214 221 260 z "},"Ș":{"ha":831,"x_min":60,"x_max":779,"o":"m 749 707 l 579 707 q 411 856 579 856 q 276 816 315 856 q 236 725 236 776 q 292 633 236 665 q 428 583 349 600 q 588 541 508 565 q 723 455 667 517 q 779 292 779 393 q 686 68 779 156 q 415 -19 593 -19 q 158 60 256 -19 q 60 310 60 139 l 229 310 q 419 121 229 121 q 564 162 522 121 q 606 258 606 203 q 576 337 606 306 q 499 385 546 368 q 394 415 451 401 q 279 446 336 428 q 175 491 222 464 q 98 569 128 518 q 68 694 68 621 q 156 910 68 825 q 419 994 244 994 q 665 919 581 994 q 749 707 749 843 m 453 -339 l 354 -339 l 354 -85 l 517 -85 l 453 -339 z "},"ș":{"ha":653,"x_min":49,"x_max":610,"o":"m 356 -339 l 257 -339 l 257 -85 l 419 -85 l 356 -339 m 590 461 l 424 461 q 328 531 418 531 q 254 513 278 531 q 231 469 231 496 q 269 418 231 436 q 364 390 308 400 q 476 363 419 379 q 571 307 532 347 q 610 200 610 267 q 542 50 610 111 q 326 -11 474 -11 q 49 199 58 -11 l 214 203 q 328 103 218 103 q 405 122 379 103 q 431 172 431 142 q 392 228 431 208 q 297 258 353 247 q 185 283 240 268 q 90 337 129 297 q 51 442 51 376 q 125 589 51 535 q 332 643 199 643 q 521 596 454 643 q 590 461 588 549 z "},"ȷ":{"ha":336,"x_min":-1,"x_max":256,"o":"m -1 -267 l -1 -142 q 10 -143 4 -143 q 67 -113 53 -143 q 81 -6 81 -83 l 81 625 l 256 625 l 256 8 q 202 -195 256 -121 q 36 -269 149 -269 q -1 -267 10 -269 z "},"ˆ":{"ha":590,"x_min":69,"x_max":521,"o":"m 521 722 l 385 722 l 294 838 l 206 722 l 69 722 l 190 928 l 399 928 l 521 722 z "},"ˇ":{"ha":590,"x_min":69,"x_max":521,"o":"m 399 722 l 190 722 l 69 928 l 206 928 l 294 811 l 385 928 l 521 928 l 399 722 z "},"˘":{"ha":536,"x_min":58,"x_max":478,"o":"m 379 915 l 478 915 q 410 773 468 825 q 268 721 351 721 q 126 772 185 721 q 58 915 68 824 l 157 915 q 267 821 175 821 q 379 915 364 821 z "},"˙":{"ha":301,"x_min":69,"x_max":232,"o":"m 232 722 l 69 722 l 69 867 l 232 867 l 232 722 z "},"˚":{"ha":393,"x_min":63,"x_max":331,"o":"m 331 850 q 291 755 331 794 q 196 715 251 715 q 101 755 140 715 q 63 850 63 794 q 101 947 63 907 q 196 986 140 986 q 292 947 253 986 q 331 850 331 907 m 238 810 q 246 818 238 810 q 254 850 254 826 q 238 891 254 874 q 197 908 221 908 q 156 891 172 908 q 139 851 139 874 q 156 810 139 826 q 197 793 174 793 q 238 810 221 793 z "},"˛":{"ha":463,"x_min":197,"x_max":506,"o":"m 458 -306 l 433 -310 q 394 -308 407 -310 q 251 -256 304 -303 q 197 -143 197 -208 q 283 18 197 -56 l 400 18 q 318 -125 318 -58 q 422 -215 318 -206 q 506 -212 460 -219 l 458 -306 z "},"˜":{"ha":600,"x_min":69,"x_max":531,"o":"m 435 893 l 531 893 q 497 773 528 821 q 404 725 467 725 q 299 755 361 725 q 214 785 238 785 q 164 724 167 785 l 69 724 q 101 844 69 796 q 206 893 133 893 q 300 865 239 893 q 383 836 361 836 q 435 893 432 836 z "},"˝":{"ha":699,"x_min":69,"x_max":629,"o":"m 199 722 l 69 722 l 169 928 l 368 928 l 199 722 m 460 722 l 331 722 l 431 928 l 629 928 l 460 722 z "},"Ḃ":{"ha":832,"x_min":113,"x_max":772,"o":"m 399 0 l 113 0 l 113 972 l 439 972 q 666 905 589 972 q 743 722 743 838 q 594 507 743 572 q 772 278 772 450 q 676 72 772 143 q 399 0 579 0 m 283 153 l 394 153 q 551 189 510 153 q 592 289 592 225 q 542 394 592 361 q 386 426 493 426 l 283 426 l 283 153 m 283 568 l 376 568 q 520 602 478 568 q 563 700 563 636 q 523 792 563 764 q 390 821 483 821 l 283 821 l 283 568 m 468 1069 l 306 1069 l 306 1214 l 468 1214 l 468 1069 z "},"ḃ":{"ha":775,"x_min":81,"x_max":731,"o":"m 256 0 l 81 0 l 81 994 l 256 994 l 256 567 q 443 643 329 643 q 654 549 578 643 q 731 319 731 454 q 713 199 731 257 q 659 94 694 142 q 566 17 624 46 q 435 -11 508 -11 q 256 58 322 -11 l 256 0 m 393 122 q 507 179 467 122 q 547 319 547 236 q 508 458 547 403 q 397 514 469 514 q 285 460 325 514 q 246 315 246 407 q 284 174 246 226 q 393 122 322 122 m 576 754 l 414 754 l 414 900 l 576 900 l 576 754 z "},"Ḋ":{"ha":988,"x_min":113,"x_max":928,"o":"m 338 0 l 113 0 l 113 972 l 354 972 q 718 896 589 972 q 876 724 825 832 q 928 486 928 617 q 896 299 928 383 q 797 146 864 215 q 613 38 731 76 q 338 0 496 0 m 283 151 l 349 151 q 746 489 746 151 q 349 821 746 821 l 283 821 l 283 151 m 533 1069 l 371 1069 l 371 1214 l 533 1214 l 533 1069 z "},"ḋ":{"ha":776,"x_min":46,"x_max":696,"o":"m 696 0 l 521 0 l 521 63 q 335 -11 450 -11 q 122 83 199 -11 q 46 315 46 178 q 127 550 46 457 q 342 643 208 643 q 521 576 450 643 l 521 994 l 696 994 l 696 0 m 379 117 q 491 171 451 117 q 531 317 531 225 q 488 461 531 413 q 382 510 446 510 q 272 457 314 510 q 229 314 229 404 q 269 172 229 228 q 379 117 308 117 m 347 754 l 185 754 l 185 900 l 347 900 l 347 754 z "},"Ḟ":{"ha":747,"x_min":113,"x_max":701,"o":"m 289 0 l 113 0 l 113 972 l 701 972 l 701 822 l 289 822 l 289 551 l 675 551 l 675 404 l 289 404 l 289 0 m 499 1069 l 336 1069 l 336 1214 l 499 1214 l 499 1069 z "},"ḟ":{"ha":443,"x_min":39,"x_max":417,"o":"m 297 0 l 121 0 l 121 485 l 39 485 l 39 625 l 121 625 l 121 722 q 176 922 121 849 q 342 994 231 994 q 413 982 383 994 l 413 865 q 379 869 394 869 q 315 834 333 869 q 297 721 297 799 l 297 625 l 417 625 l 417 485 l 297 485 l 297 0 m 342 1065 l 179 1065 l 179 1210 l 342 1210 l 342 1065 z "},"Ṁ":{"ha":1239,"x_min":113,"x_max":1126,"o":"m 1126 0 l 951 0 l 951 744 l 690 -4 l 550 -4 l 288 744 l 288 0 l 113 0 l 113 972 l 383 972 l 619 306 l 856 972 l 1126 972 l 1126 0 m 701 1008 l 539 1008 l 539 1154 l 701 1154 l 701 1008 z "},"ṁ":{"ha":1119,"x_min":81,"x_max":1043,"o":"m 640 722 l 478 722 l 478 867 l 640 867 l 640 722 m 1043 0 l 868 0 l 868 367 q 855 458 868 431 q 794 486 842 486 q 693 447 738 486 q 649 328 649 408 l 649 0 l 472 0 l 472 379 q 457 462 472 438 q 401 486 442 486 q 300 447 344 486 q 256 325 256 407 l 256 0 l 81 0 l 81 625 l 256 625 l 256 535 q 444 643 322 643 q 625 525 581 643 q 833 643 701 643 q 1043 376 1043 643 l 1043 0 z "},"Ṗ":{"ha":793,"x_min":113,"x_max":756,"o":"m 283 0 l 113 0 l 113 972 l 393 972 q 672 894 588 972 q 756 667 756 815 q 670 435 756 517 q 389 354 585 354 l 283 354 l 283 0 m 283 504 l 390 504 q 533 544 489 504 q 576 664 576 585 q 533 782 576 743 q 390 821 490 821 l 283 821 l 283 504 m 485 1069 l 322 1069 l 322 1214 l 485 1214 l 485 1069 z "},"ṗ":{"ha":775,"x_min":81,"x_max":731,"o":"m 256 -268 l 81 -268 l 81 625 l 256 625 l 256 572 q 438 643 324 643 q 653 548 575 643 q 731 317 731 453 q 649 83 731 178 q 433 -11 567 -11 q 256 56 322 -11 l 256 -268 m 394 122 q 506 174 464 122 q 547 317 547 226 q 508 458 547 403 q 397 514 469 514 q 286 461 326 514 q 246 315 246 408 q 288 170 246 218 q 394 122 331 122 m 469 722 l 307 722 l 307 867 l 469 867 l 469 722 z "},"Ṡ":{"ha":831,"x_min":60,"x_max":779,"o":"m 749 707 l 579 707 q 411 856 579 856 q 276 816 315 856 q 236 725 236 776 q 292 633 236 665 q 428 583 349 600 q 588 541 508 565 q 723 455 667 517 q 779 292 779 393 q 686 68 779 156 q 415 -19 593 -19 q 158 60 256 -19 q 60 310 60 139 l 229 310 q 419 121 229 121 q 564 162 522 121 q 606 258 606 203 q 576 337 606 306 q 499 385 546 368 q 394 415 451 401 q 279 446 336 428 q 175 491 222 464 q 98 569 128 518 q 68 694 68 621 q 156 910 68 825 q 419 994 244 994 q 665 919 581 994 q 749 707 749 843 m 486 1069 l 324 1069 l 324 1214 l 486 1214 l 486 1069 z "},"ṡ":{"ha":653,"x_min":49,"x_max":610,"o":"m 403 722 l 240 722 l 240 867 l 403 867 l 403 722 m 590 461 l 424 461 q 328 531 418 531 q 254 513 278 531 q 231 469 231 496 q 269 418 231 436 q 364 390 308 400 q 476 363 419 379 q 571 307 532 347 q 610 200 610 267 q 542 50 610 111 q 326 -11 474 -11 q 49 199 58 -11 l 214 203 q 328 103 218 103 q 405 122 379 103 q 431 172 431 142 q 392 228 431 208 q 297 258 353 247 q 185 283 240 268 q 90 337 129 297 q 51 442 51 376 q 125 589 51 535 q 332 643 199 643 q 521 596 454 643 q 590 461 588 549 z "},"Ṫ":{"ha":728,"x_min":22,"x_max":706,"o":"m 451 0 l 275 0 l 275 822 l 22 822 l 22 972 l 706 972 l 706 822 l 451 822 l 451 0 m 444 1069 l 282 1069 l 282 1214 l 444 1214 l 444 1069 z "},"ṫ":{"ha":518,"x_min":26,"x_max":476,"o":"m 476 151 l 476 21 q 339 -11 424 -11 q 119 231 119 -11 l 119 485 l 26 485 l 26 625 l 119 625 l 119 810 l 296 868 l 296 625 l 476 625 l 476 485 l 296 485 l 296 281 q 311 166 296 197 q 381 135 326 135 q 476 151 426 135 m 286 940 l 124 940 l 124 1086 l 286 1086 l 286 940 z "},"Ẁ":{"ha":1368,"x_min":22,"x_max":1346,"o":"m 1103 -6 l 899 -6 l 683 740 l 469 -6 l 265 -6 l 22 972 l 206 972 l 374 249 l 578 972 l 790 972 l 994 249 l 1163 972 l 1346 972 l 1103 -6 m 785 1069 l 656 1069 l 486 1275 l 683 1275 l 785 1069 z "},"ẁ":{"ha":1114,"x_min":14,"x_max":1100,"o":"m 907 -4 l 678 -4 l 557 403 l 436 -4 l 207 -4 l 14 625 l 201 625 l 324 172 l 461 626 l 653 626 l 790 172 l 913 625 l 1100 625 l 907 -4 m 657 722 l 528 722 l 358 928 l 557 928 l 657 722 z "},"Ẃ":{"ha":1368,"x_min":22,"x_max":1346,"o":"m 1103 -6 l 899 -6 l 683 740 l 469 -6 l 265 -6 l 22 972 l 206 972 l 374 249 l 578 972 l 790 972 l 994 249 l 1163 972 l 1346 972 l 1103 -6 m 719 1069 l 590 1069 l 690 1275 l 889 1275 l 719 1069 z "},"ẃ":{"ha":1114,"x_min":14,"x_max":1100,"o":"m 907 -4 l 678 -4 l 557 403 l 436 -4 l 207 -4 l 14 625 l 201 625 l 324 172 l 461 626 l 653 626 l 790 172 l 913 625 l 1100 625 l 907 -4 m 592 722 l 463 722 l 564 928 l 761 928 l 592 722 z "},"Ẅ":{"ha":1368,"x_min":22,"x_max":1346,"o":"m 1103 -6 l 899 -6 l 683 740 l 469 -6 l 265 -6 l 22 972 l 206 972 l 374 249 l 578 972 l 790 972 l 994 249 l 1163 972 l 1346 972 l 1103 -6 m 646 1069 l 486 1069 l 486 1213 l 646 1213 l 646 1069 m 882 1069 l 722 1069 l 722 1213 l 882 1213 l 882 1069 z "},"ẅ":{"ha":1114,"x_min":14,"x_max":1100,"o":"m 907 -4 l 678 -4 l 557 403 l 436 -4 l 207 -4 l 14 625 l 201 625 l 324 172 l 461 626 l 653 626 l 790 172 l 913 625 l 1100 625 l 907 -4 m 518 722 l 358 722 l 358 865 l 518 865 l 518 722 m 754 722 l 594 722 l 594 865 l 754 865 l 754 722 z "},"Ỳ":{"ha":785,"x_min":-1,"x_max":785,"o":"m 481 0 l 304 0 l 304 356 l -1 972 l 192 972 l 392 558 l 593 972 l 785 972 l 481 356 l 481 0 m 481 1069 l 351 1069 l 182 1275 l 379 1275 l 481 1069 z "},"ỳ":{"ha":671,"x_min":7,"x_max":663,"o":"m 94 -251 l 94 -117 q 161 -131 126 -131 q 231 -105 206 -131 q 275 -15 256 -79 l 290 35 l 222 35 l 7 625 l 193 625 l 339 189 l 476 625 l 663 625 l 443 -36 q 344 -210 404 -153 q 186 -268 283 -268 q 94 -251 131 -268 m 418 722 l 289 722 l 119 928 l 318 928 l 418 722 z "},"–":{"ha":847,"x_min":76,"x_max":771,"o":"m 771 282 l 76 282 l 76 421 l 771 421 l 771 282 z "},"—":{"ha":1542,"x_min":76,"x_max":1465,"o":"m 1465 282 l 76 282 l 76 421 l 1465 421 l 1465 282 z "},"‘":{"ha":306,"x_min":49,"x_max":231,"o":"m 231 690 l 49 690 l 135 972 l 231 972 l 231 690 z "},"’":{"ha":293,"x_min":75,"x_max":257,"o":"m 171 690 l 75 690 l 75 972 l 257 972 l 171 690 z "},"‚":{"ha":329,"x_min":79,"x_max":261,"o":"m 175 -124 l 79 -124 l 79 158 l 261 158 l 175 -124 z "},"“":{"ha":560,"x_min":49,"x_max":485,"o":"m 231 690 l 49 690 l 135 972 l 231 972 l 231 690 m 485 690 l 301 690 l 388 972 l 485 972 l 485 690 z "},"”":{"ha":547,"x_min":75,"x_max":511,"o":"m 425 690 l 329 690 l 329 972 l 511 972 l 425 690 m 172 690 l 75 690 l 75 972 l 258 972 l 172 690 z "},"„":{"ha":583,"x_min":79,"x_max":515,"o":"m 429 -124 l 333 -124 l 333 158 l 515 158 l 429 -124 m 176 -124 l 79 -124 l 79 158 l 263 158 l 176 -124 z "},"†":{"ha":644,"x_min":57,"x_max":588,"o":"m 410 -69 l 235 -69 l 235 582 l 57 582 l 57 722 l 235 722 l 235 994 l 410 994 l 410 722 l 588 722 l 588 582 l 410 582 l 410 -69 z "},"‡":{"ha":667,"x_min":68,"x_max":599,"o":"m 421 -69 l 246 -69 l 246 254 l 68 254 l 68 394 l 246 394 l 246 582 l 68 582 l 68 722 l 246 722 l 246 994 l 421 994 l 421 722 l 599 722 l 599 582 l 421 582 l 421 394 l 599 394 l 599 254 l 421 254 l 421 -69 z "},"•":{"ha":481,"x_min":54,"x_max":426,"o":"m 426 486 q 372 355 426 410 q 240 300 317 300 q 109 354 164 300 q 54 486 54 408 q 109 618 54 564 q 240 672 164 672 q 372 618 317 672 q 426 486 426 564 z "},"…":{"ha":1089,"x_min":76,"x_max":1013,"o":"m 258 0 l 76 0 l 76 158 l 258 158 l 258 0 m 636 0 l 453 0 l 453 158 l 636 158 l 636 0 m 1013 0 l 831 0 l 831 158 l 1013 158 l 1013 0 z "},"‰":{"ha":2096,"x_min":56,"x_max":2042,"o":"m 608 731 q 535 544 608 622 q 332 465 463 465 q 128 544 201 465 q 56 731 56 622 q 128 916 56 838 q 332 994 201 994 q 535 916 463 994 q 608 731 608 838 m 242 622 q 258 601 242 622 q 332 581 274 581 q 422 622 390 581 q 453 731 453 663 q 422 839 453 797 q 332 881 390 881 q 242 839 274 881 q 210 731 210 797 q 242 622 210 663 m 528 -37 l 367 -37 l 919 1022 l 1082 1022 l 528 -37 m 1397 244 q 1324 59 1397 138 q 1121 -19 1251 -19 q 917 59 990 -19 q 844 244 844 138 q 917 431 844 353 q 1121 510 990 510 q 1324 431 1251 510 q 1397 244 1397 353 m 1031 135 q 1047 115 1031 135 q 1121 94 1063 94 q 1210 136 1179 94 q 1242 244 1242 178 q 1210 353 1242 311 q 1121 396 1179 396 q 1031 353 1063 396 q 999 244 999 311 q 1031 135 999 176 m 2042 244 q 1968 59 2042 138 q 1764 -19 1894 -19 q 1560 59 1633 -19 q 1488 244 1488 138 q 1560 431 1488 353 q 1764 510 1633 510 q 1968 431 1894 510 q 2042 244 2042 353 m 1764 94 q 1855 136 1824 94 q 1886 244 1886 178 q 1855 354 1886 313 q 1764 396 1824 396 q 1674 353 1706 396 q 1642 244 1642 311 q 1674 135 1642 176 q 1764 94 1706 94 z "},"‹":{"ha":446,"x_min":47,"x_max":397,"o":"m 397 49 l 263 49 l 47 358 l 263 668 l 397 668 l 214 358 l 397 49 z "},"›":{"ha":446,"x_min":49,"x_max":399,"o":"m 183 49 l 49 49 l 232 358 l 49 668 l 183 668 l 399 358 l 183 49 z "},"⁄":{"ha":681,"x_min":10,"x_max":661,"o":"m 661 972 l 143 0 l 10 0 l 528 972 l 661 972 z "},"⁴":{"ha":524,"x_min":46,"x_max":488,"o":"m 425 392 l 308 392 l 308 519 l 46 519 l 46 646 l 276 975 l 425 975 l 425 632 l 488 632 l 488 519 l 425 519 l 425 392 m 308 632 l 308 843 l 168 632 l 308 632 z "},"€":{"ha":906,"x_min":58,"x_max":840,"o":"m 767 158 l 840 29 q 628 -19 747 -19 q 361 64 478 -19 q 199 304 244 147 l 58 304 l 79 432 l 174 432 q 171 475 171 447 q 174 531 171 511 l 85 531 l 106 660 l 193 660 q 353 908 236 821 q 629 994 471 994 q 840 946 750 994 l 767 810 q 622 847 707 847 q 381 660 438 847 l 747 660 l 726 531 l 357 531 q 354 494 354 511 q 358 432 354 472 l 721 432 l 700 304 l 390 304 q 632 128 453 128 q 767 158 711 128 z "},"™":{"ha":1210,"x_min":89,"x_max":1101,"o":"m 326 504 l 217 504 l 217 899 l 89 899 l 89 994 l 454 994 l 454 899 l 326 899 l 326 504 m 1101 504 l 993 504 l 993 858 l 861 503 l 763 503 l 631 858 l 631 504 l 522 504 l 522 994 l 693 994 l 813 658 l 931 994 l 1101 994 l 1101 504 z "},"⅓":{"ha":1210,"x_min":63,"x_max":1147,"o":"m 874 972 l 356 0 l 222 0 l 740 972 l 874 972 m 311 393 l 194 393 l 194 819 q 63 696 146 754 l 63 824 q 200 976 142 882 l 311 976 l 311 393 m 908 242 l 892 242 l 892 356 q 1015 426 1015 356 q 996 470 1015 457 q 951 483 976 483 q 902 464 919 483 q 885 419 885 444 l 761 419 q 950 597 761 597 q 1092 553 1046 597 q 1139 444 1139 510 q 1035 303 1139 346 q 1147 160 1147 271 q 1099 38 1147 88 q 947 -11 1050 -11 q 799 36 850 -11 q 749 175 749 83 l 872 175 q 896 119 872 138 q 951 101 919 101 q 1024 178 1024 101 q 908 242 1024 242 z "},"⅔":{"ha":1299,"x_min":63,"x_max":1236,"o":"m 963 972 l 444 0 l 311 0 l 829 972 l 963 972 m 997 242 l 981 242 l 981 356 q 1104 426 1104 356 q 1085 470 1104 457 q 1040 483 1065 483 q 991 464 1008 483 q 974 419 974 444 l 850 419 q 1039 597 850 597 q 1181 553 1135 597 q 1228 444 1228 510 q 1124 303 1228 346 q 1236 160 1236 271 q 1188 38 1236 88 q 1036 -11 1139 -11 q 888 36 939 -11 q 838 175 838 83 l 961 175 q 985 119 961 138 q 1040 101 1008 101 q 1113 178 1113 101 q 997 242 1113 242 m 401 397 l 63 397 l 63 489 q 90 594 63 551 q 156 658 117 636 q 233 698 194 679 q 299 747 272 717 q 326 819 326 776 q 312 861 326 842 q 267 881 297 881 q 189 786 189 881 l 65 786 q 113 941 65 888 q 251 994 160 994 q 394 948 339 994 q 450 818 450 901 q 431 726 450 767 q 382 664 411 686 q 318 621 353 642 q 254 587 283 600 q 206 553 225 574 q 186 510 186 533 l 450 510 l 401 397 z "},"∆":{"ha":951,"x_min":67,"x_max":886,"o":"m 599 0 l 446 0 l 503 236 l 321 236 l 265 0 l 113 0 l 168 236 l 67 236 l 67 375 l 203 375 l 257 604 l 122 604 l 122 743 l 292 743 l 347 972 l 500 972 l 444 743 l 625 743 l 681 972 l 833 972 l 778 743 l 886 743 l 886 604 l 744 604 l 689 375 l 831 375 l 831 236 l 656 236 l 599 0 m 536 375 l 592 604 l 410 604 l 356 375 l 536 375 z "},"−":{"ha":750,"x_min":90,"x_max":660,"o":"m 660 288 l 90 288 l 90 426 l 660 426 l 660 288 z "},"":{"ha":274,"x_min":58,"x_max":222,"o":"m 158 -339 l 58 -339 l 58 -85 l 222 -85 l 158 -339 z "},"":{"ha":1375,"x_min":65,"x_max":1308,"o":"m 826 0 l 549 0 l 411 692 l 686 963 l 963 692 l 826 0 m 481 0 l 246 0 l 65 233 l 183 460 l 411 346 l 481 0 m 1128 0 l 894 0 l 963 346 l 1192 460 l 1308 233 l 1128 0 z "},"ﬀ":{"ha":886,"x_min":39,"x_max":860,"o":"m 297 0 l 121 0 l 121 485 l 39 485 l 39 625 l 121 625 l 121 722 q 176 922 121 849 q 342 994 231 994 q 413 982 383 994 l 413 865 q 379 869 394 869 q 315 834 333 869 q 297 721 297 799 l 297 625 l 417 625 l 417 485 l 297 485 l 297 0 m 740 0 l 564 0 l 564 485 l 482 485 l 482 625 l 564 625 l 564 722 q 619 922 564 849 q 785 994 674 994 q 856 982 826 994 l 856 865 q 822 869 838 869 q 758 834 776 869 q 740 721 740 799 l 740 625 l 860 625 l 860 485 l 740 485 l 740 0 z "},"ﬁ":{"ha":779,"x_min":39,"x_max":699,"o":"m 297 0 l 121 0 l 121 485 l 39 485 l 39 625 l 121 625 l 121 722 q 176 922 121 849 q 342 994 231 994 q 413 982 383 994 l 413 865 q 379 869 394 869 q 315 834 333 869 q 297 721 297 799 l 297 625 l 417 625 l 417 485 l 297 485 l 297 0 m 699 0 l 524 0 l 524 625 l 699 625 l 699 0 m 699 776 l 524 776 l 524 929 l 699 929 l 699 776 z "},"ﬂ":{"ha":785,"x_min":39,"x_max":701,"o":"m 297 0 l 121 0 l 121 485 l 39 485 l 39 625 l 121 625 l 121 722 q 176 922 121 849 q 342 994 231 994 q 413 982 383 994 l 413 865 q 379 869 394 869 q 315 834 333 869 q 297 721 297 799 l 297 625 l 417 625 l 417 485 l 297 485 l 297 0 m 701 0 l 526 0 l 526 994 l 701 994 l 701 0 z "},"ﬃ":{"ha":1222,"x_min":39,"x_max":1142,"o":"m 297 0 l 121 0 l 121 485 l 39 485 l 39 625 l 121 625 l 121 722 q 176 922 121 849 q 342 994 231 994 q 413 982 383 994 l 413 865 q 379 869 394 869 q 315 834 333 869 q 297 721 297 799 l 297 625 l 417 625 l 417 485 l 297 485 l 297 0 m 740 0 l 564 0 l 564 485 l 482 485 l 482 625 l 564 625 l 564 722 q 619 922 564 849 q 785 994 674 994 q 856 982 826 994 l 856 865 q 822 869 838 869 q 758 834 776 869 q 740 721 740 799 l 740 625 l 860 625 l 860 485 l 740 485 l 740 0 m 1142 0 l 967 0 l 967 625 l 1142 625 l 1142 0 m 1142 776 l 967 776 l 967 929 l 1142 929 l 1142 776 z "},"ﬄ":{"ha":1228,"x_min":39,"x_max":1144,"o":"m 297 0 l 121 0 l 121 485 l 39 485 l 39 625 l 121 625 l 121 722 q 176 922 121 849 q 342 994 231 994 q 413 982 383 994 l 413 865 q 379 869 394 869 q 315 834 333 869 q 297 721 297 799 l 297 625 l 417 625 l 417 485 l 297 485 l 297 0 m 740 0 l 564 0 l 564 485 l 482 485 l 482 625 l 564 625 l 564 722 q 619 922 564 849 q 785 994 674 994 q 856 982 826 994 l 856 865 q 822 869 838 869 q 758 834 776 869 q 740 721 740 799 l 740 625 l 860 625 l 860 485 l 740 485 l 740 0 m 1144 0 l 969 0 l 969 994 l 1144 994 l 1144 0 z "}}}
